<svg xmlns="http://www.w3.org/2000/svg" width="68.86" height="59.055" viewBox="0 0 68.86 59.055">
  <g id="arrow_3_" data-name="arrow (3)" transform="translate(0 -31.842)">
    <g id="Group_4771" data-name="Group 4771" transform="translate(0 31.842)">
      <path id="Path_8126" data-name="Path 8126" d="M64.721,56.536a4.919,4.919,0,0,0-.852-.063H15.289l1.059-.493a9.853,9.853,0,0,0,2.784-1.971L32.755,40.386a5.1,5.1,0,0,0,.714-6.528,4.926,4.926,0,0,0-7.39-.641L1.445,57.852a4.927,4.927,0,0,0,0,6.968l0,0L26.079,89.458a4.927,4.927,0,0,0,7.39-.493,5.1,5.1,0,0,0-.714-6.528L19.157,68.79a9.855,9.855,0,0,0-2.463-1.8l-1.478-.665H63.6a5.1,5.1,0,0,0,5.2-4.139A4.927,4.927,0,0,0,64.721,56.536Z" transform="translate(0 -31.842)"/>
    </g>
  </g>
</svg>
