<svg xmlns="http://www.w3.org/2000/svg" width="125.303" height="125.303" viewBox="0 0 125.303 125.303">
  <g id="barbell" transform="translate(-0.482 -0.482)">
    <g id="Group_4933" data-name="Group 4933" transform="translate(0.482 0.482)">
      <g id="Group_4932" data-name="Group 4932">
        <g id="Group_4931" data-name="Group 4931">
          <g id="Group_4930" data-name="Group 4930">
            <g id="Group_4929" data-name="Group 4929">
              <g id="Group_4928" data-name="Group 4928">
                <g id="Group_4927" data-name="Group 4927">
                  <g id="Group_4926" data-name="Group 4926">
                    <circle id="Ellipse_362" data-name="Ellipse 362" cx="62.652" cy="62.652" r="62.652" fill="#fe6a16"/>
                  </g>
                </g>
              </g>
            </g>
          </g>
        </g>
      </g>
    </g>
    <path id="Path_8370" data-name="Path 8370" d="M96.941,242.8a63.192,63.192,0,0,0,61.869-61.247l-17.2-17.434-3.667,2.152-10.92-10.92L104.7,183.741,75.549,154.588,43.1,186.858l9.594,9.594-1.225.869Z" transform="translate(-33.054 -117.026)" fill="#e83c00"/>
    <g id="Group_4934" data-name="Group 4934" transform="translate(10.041 55.357)">
      <path id="Path_8371" data-name="Path 8371" d="M43.1,226.679H148.2v14.475H43.1Z" transform="translate(-43.095 -226.679)" fill="#fff"/>
    </g>
    <g id="Group_4935" data-name="Group 4935" transform="translate(10.041 62.657)">
      <path id="Path_8372" data-name="Path 8372" d="M43.1,256.253H148.2v7.175H43.1Z" transform="translate(-43.095 -256.253)" fill="#e9edf5"/>
    </g>
    <g id="Group_4940" data-name="Group 4940" transform="translate(15.724 35.413)">
      <g id="Group_4936" data-name="Group 4936" transform="translate(0 7.671)">
        <path id="Path_8373" data-name="Path 8373" d="M73.726,215.98a7.61,7.61,0,0,1-7.61-7.61v-23.8a7.61,7.61,0,1,1,15.22,0v23.8A7.61,7.61,0,0,1,73.726,215.98Z" transform="translate(-66.116 -176.959)" fill="#636978"/>
      </g>
      <g id="Group_4937" data-name="Group 4937" transform="translate(13.865)">
        <path id="Path_8374" data-name="Path 8374" d="M129.9,200.245a7.61,7.61,0,0,1-7.61-7.61V153.493a7.61,7.61,0,0,1,15.22,0v39.143A7.61,7.61,0,0,1,129.9,200.245Z" transform="translate(-122.287 -145.883)" fill="#555a66"/>
      </g>
      <g id="Group_4938" data-name="Group 4938" transform="translate(78.522 7.671)">
        <path id="Path_8375" data-name="Path 8375" d="M391.836,176.96a7.61,7.61,0,0,1,7.61,7.61v23.8a7.61,7.61,0,1,1-15.22,0v-23.8A7.61,7.61,0,0,1,391.836,176.96Z" transform="translate(-384.226 -176.96)" fill="#636978"/>
      </g>
      <g id="Group_4939" data-name="Group 4939" transform="translate(64.657)">
        <path id="Path_8376" data-name="Path 8376" d="M335.665,145.883a7.61,7.61,0,0,1,7.61,7.61v39.143a7.61,7.61,0,1,1-15.22,0V153.493A7.61,7.61,0,0,1,335.665,145.883Z" transform="translate(-328.055 -145.883)" fill="#555a66"/>
      </g>
    </g>
    <g id="Group_4945" data-name="Group 4945" transform="translate(15.724 62.657)">
      <g id="Group_4941" data-name="Group 4941">
        <path id="Path_8377" data-name="Path 8377" d="M66.116,256.253v11.838a7.61,7.61,0,1,0,15.22,0V256.253Z" transform="translate(-66.116 -256.253)" fill="#414952"/>
      </g>
      <g id="Group_4942" data-name="Group 4942" transform="translate(13.865)">
        <path id="Path_8378" data-name="Path 8378" d="M122.287,256.253v19.509a7.61,7.61,0,0,0,15.22,0V256.253Z" transform="translate(-122.287 -256.253)" fill="#333940"/>
      </g>
      <g id="Group_4943" data-name="Group 4943" transform="translate(78.522)">
        <path id="Path_8379" data-name="Path 8379" d="M384.226,256.253v11.838a7.61,7.61,0,1,0,15.22,0V256.253Z" transform="translate(-384.226 -256.253)" fill="#414952"/>
      </g>
      <g id="Group_4944" data-name="Group 4944" transform="translate(64.657)">
        <path id="Path_8380" data-name="Path 8380" d="M328.055,256.253v19.509a7.61,7.61,0,0,0,15.22,0V256.253Z" transform="translate(-328.055 -256.253)" fill="#333940"/>
      </g>
    </g>
  </g>
</svg>
