<svg id="camera_5_" data-name="camera (5)" xmlns="http://www.w3.org/2000/svg" width="147.25" height="134.445" viewBox="0 0 147.25 134.445">
  <g id="Group_5026" data-name="Group 5026" transform="translate(0 0)">
    <g id="Group_5025" data-name="Group 5025" transform="translate(0 0)">
      <path id="Path_8764" data-name="Path 8764" d="M179.239,98.137H158.944l-11.716-12.8H102.413v19.206H83.206v19.206H64v64.021a12.842,12.842,0,0,0,12.8,12.8H179.239a12.842,12.842,0,0,0,12.8-12.8V110.942A12.842,12.842,0,0,0,179.239,98.137Zm-51.217,83.228a32.011,32.011,0,1,1,32.011-32.011A32.023,32.023,0,0,1,128.021,181.365Z" transform="translate(-44.794 -66.127)"/>
      <path id="Path_8765" data-name="Path 8765" d="M19.206,72.55h12.8V53.344H51.217v-12.8H32.011V21.333h-12.8V40.539H0v12.8H19.206Z" transform="translate(0 -21.333)"/>
      <path id="Path_8766" data-name="Path 8766" d="M229.553,230.4a20.465,20.465,0,0,0-20.487,20.487h0A20.487,20.487,0,1,0,229.553,230.4Z" transform="translate(-146.325 -167.659)"/>
    </g>
  </g>
</svg>
