<svg id="credit-card_6_" data-name="credit-card (6)" xmlns="http://www.w3.org/2000/svg" width="77.384" height="53.201" viewBox="0 0 77.384 53.201">
  <path id="Path_8733" data-name="Path 8733" d="M77.384,92.545V88.464A8.464,8.464,0,0,0,68.92,80H8.464A8.464,8.464,0,0,0,0,88.464v4.081a.756.756,0,0,0,.756.756H76.628A.756.756,0,0,0,77.384,92.545Z" transform="translate(0 -80)" fill="#9597ac"/>
  <path id="Path_8734" data-name="Path 8734" d="M0,200.756V226.6a8.464,8.464,0,0,0,8.464,8.464H68.92a8.464,8.464,0,0,0,8.464-8.464V200.756a.756.756,0,0,0-.756-.756H.756A.756.756,0,0,0,0,200.756Zm19.346,19.8a2.418,2.418,0,0,1-2.418,2.418H14.509a2.418,2.418,0,0,1-2.418-2.418v-2.418a2.418,2.418,0,0,1,2.418-2.418h2.418a2.418,2.418,0,0,1,2.418,2.418Z" transform="translate(0 -181.863)" fill="#9597ac"/>
</svg>
