<svg xmlns="http://www.w3.org/2000/svg" width="52.945" height="60.24" viewBox="0 0 52.945 60.24">
  <g id="delete_6_" data-name="delete (6)" transform="translate(-31)">
    <path id="Path_6709" data-name="Path 6709" d="M32.765,153.53h5.295v37.3a1.764,1.764,0,0,0,1.765,1.765h35.3a1.764,1.764,0,0,0,1.765-1.765v-37.3H82.18a1.765,1.765,0,0,0,0-3.53H32.765a1.765,1.765,0,0,0,0,3.53Zm15.884,32a1.765,1.765,0,0,1-3.53,0V157.059a1.765,1.765,0,0,1,3.53,0Zm10.589,0a1.765,1.765,0,0,1-3.53,0V157.059a1.765,1.765,0,0,1,3.53,0Zm10.589,0a1.765,1.765,0,0,1-3.53,0V157.059a1.765,1.765,0,0,1,3.53,0Z" transform="translate(0 -132.352)" fill="#df0f0f"/>
    <path id="Path_6710" data-name="Path 6710" d="M106.886,8.824a1.764,1.764,0,0,0-1.765-1.765H92.767V1.765A1.764,1.764,0,0,0,91,0H76.884a1.764,1.764,0,0,0-1.765,1.765V7.059H62.765A1.764,1.764,0,0,0,61,8.824v5.295h45.886ZM78.648,3.53H89.238v3.53H78.648Z" transform="translate(-26.47)" fill="#df0f0f"/>
  </g>
</svg>
