<svg xmlns="http://www.w3.org/2000/svg" width="111.582" height="112.526" viewBox="0 0 111.582 112.526">
  <g id="edit_11_" data-name="edit (11)" transform="translate(-11.777 -11.675)">
    <path id="Path_8134" data-name="Path 8134" d="M18.621,124.2a6.849,6.849,0,0,1-6.738-8.043l4.839-27.435a6.872,6.872,0,0,1,1.9-3.652L86.409,17.292c8.326-8.345,16.506-6.089,20.98-1.616L118.682,26.97a15.985,15.985,0,0,1,0,22.6L50.895,117.354a6.746,6.746,0,0,1-3.652,1.9l-27.435,4.839a6.527,6.527,0,0,1-1.187.11Zm27.435-11.686h.091Z" transform="translate(0 0)"/>
  </g>
</svg>
