<svg xmlns="http://www.w3.org/2000/svg" width="56.804" height="52.81" viewBox="0 0 56.804 52.81">
  <path id="edit-image" d="M56.8,8.876v11.76a2.219,2.219,0,1,1-4.438,0V8.876a4.443,4.443,0,0,0-4.438-4.438H8.876A4.443,4.443,0,0,0,4.438,8.876V39.94a4.443,4.443,0,0,0,4.438,4.438H24.408a2.219,2.219,0,0,1,0,4.438H8.876A8.885,8.885,0,0,1,0,39.94V8.876A8.885,8.885,0,0,1,8.876,0H47.928A8.885,8.885,0,0,1,56.8,8.876ZM9.308,36.161a2.219,2.219,0,0,0,3.109-.426l3.152-4.153,5.855,7.405a2.218,2.218,0,0,0,1.74.843h0a2.22,2.22,0,0,0,1.741-.847l17.07-21.688,3.462,4.2a2.219,2.219,0,1,0,3.424-2.823l-5.214-6.324a2.219,2.219,0,0,0-3.456.039L23.16,34.028l-5.887-7.446a2.219,2.219,0,0,0-3.508.035L8.882,33.052a2.219,2.219,0,0,0,.426,3.109ZM8.876,14.645A6.657,6.657,0,1,1,15.532,21.3,6.664,6.664,0,0,1,8.876,14.645Zm4.438,0a2.219,2.219,0,1,0,2.219-2.219A2.222,2.222,0,0,0,13.313,14.645ZM54.854,28.133a6.664,6.664,0,0,1,0,9.414L42.7,49.68a2.215,2.215,0,0,1-.976.568l-8.956,2.481a2.219,2.219,0,0,1-2.716-2.783L32.7,41.212a2.215,2.215,0,0,1,.556-.926L45.442,28.131a6.664,6.664,0,0,1,9.412,0Zm-6.707,9.839-3.139-3.139-8.22,8.2L35.47,47.376l4.505-1.248Zm3.569-6.7a2.22,2.22,0,0,0-3.138,0l-.429.427,3.138,3.138.43-.429a2.22,2.22,0,0,0,0-3.136Zm0,0" fill="#fff"/>
</svg>
