<svg xmlns="http://www.w3.org/2000/svg" width="83.133" height="49.198" viewBox="0 0 83.133 49.198">
  <path id="fast-delivery" d="M59.264.49c7.208,1.673,9.965,5.887,13.421,11.688H59.264ZM17.142,12.665a2.138,2.138,0,0,1,2.436,2.273,2.435,2.435,0,0,1-2.429,2.436H2.435a2.436,2.436,0,0,0,0,4.871h21.92a2.436,2.436,0,1,1,.01,4.871H2.435a2.436,2.436,0,1,0,0,4.871H7.793v7.307a2.435,2.435,0,0,0,2.436,2.436h4.9a9.338,9.338,0,0,0,18.3,0h24.73a9.338,9.338,0,0,0,18.3,0H80.7a2.435,2.435,0,0,0,2.436-2.436V24.68c0-7.146-7.537-7.621-7.544-7.631H56.829a2.435,2.435,0,0,1-2.436-2.436V0H10.229A2.435,2.435,0,0,0,7.793,2.436V7.794H4.871a2.436,2.436,0,0,0,0,4.871ZM70.459,36.7a4.465,4.465,0,1,1-7.622,3.157A4.466,4.466,0,0,1,70.459,36.7Zm-43.028,0a4.465,4.465,0,1,1-7.622,3.157A4.466,4.466,0,0,1,27.431,36.7Zm0,0" transform="translate(0 0)" fill-rule="evenodd" opacity="0.3"/>
</svg>
