<svg xmlns="http://www.w3.org/2000/svg" width="51.276" height="58.73" viewBox="0 0 51.276 58.73">
  <g id="finance" transform="translate(-32.491)">
    <path id="Path_8761" data-name="Path 8761" d="M83.764,310.167c-.071-2.273-.557-3.579-1.574-4.237-3.363-2.174-9.08.3-12.618,2.213a3.244,3.244,0,0,0-3.056-1.262l-4.729.629a4.619,4.619,0,0,1-2.429-.346,9.676,9.676,0,0,0-5.326-.807c-4.886.558-4.747.958-6.093,1.606a12.911,12.911,0,0,1-2.582.435,3.446,3.446,0,0,0-3.147-2.052H35.932a3.445,3.445,0,0,0-3.441,3.441v15.59a3.445,3.445,0,0,0,3.441,3.441H42.21a3.447,3.447,0,0,0,3.316-2.525l2.566-.467c.722-.106-.176-.114,15.264.943A14.263,14.263,0,0,0,74.508,322.6c8.574-8.773,7.125-7.294,7.293-7.462a6.825,6.825,0,0,0,1.963-4.972ZM42.209,325.377H35.932V309.787H42.21v15.589Zm37.118-12.63c-8.574,8.772-7.125,7.294-7.292,7.462a10.787,10.787,0,0,1-8.445,3.128l-13.872-.949a12.284,12.284,0,0,0-4.068.385V311.831a13.553,13.553,0,0,0,3.778-.766c1.279-.615.825-.813,4.993-1.289a6.352,6.352,0,0,1,3.579.551,8.064,8.064,0,0,0,4.24.6l4.583-.61a3,3,0,0,1-.011,1.837.887.887,0,0,1-.55.5c-1.907.713-1.907.713-10.092,1.9a1.721,1.721,0,1,0,.492,3.406c8.39-1.213,8.551-1.236,10.8-2.079a4.507,4.507,0,0,0,2.926-4.253c3.18-1.849,7.869-3.766,9.736-2.9a6.084,6.084,0,0,1,.2,1.561,3.412,3.412,0,0,1-1,2.471Z" transform="translate(0 -270.088)"/>
    <path id="Path_8762" data-name="Path 8762" d="M161.894,32.806a16.4,16.4,0,1,0-16.4-16.4A16.422,16.422,0,0,0,161.894,32.806Zm0-29.365A12.962,12.962,0,1,1,148.932,16.4,12.977,12.977,0,0,1,161.894,3.441Z" transform="translate(-100.038)"/>
    <path id="Path_8763" data-name="Path 8763" d="M244,73.479a6.5,6.5,0,0,0,2.709,1.124v.3a1.721,1.721,0,0,0,3.441,0v-.488A5.461,5.461,0,0,0,253.73,70.2a4.832,4.832,0,0,0-3.281-5.471,12.948,12.948,0,0,1-3.252-1.5.812.812,0,0,1-.126-.721,1.183,1.183,0,0,1,.764-.935c1.469-.442,2.127.378,2.708.681a1.721,1.721,0,0,0,1.655-3.016,6.435,6.435,0,0,0-2.05-1.025v-.266a1.721,1.721,0,1,0-3.441,0v.377c-3.329,1.122-4.141,5.645-1.632,7.613A15.347,15.347,0,0,0,249.3,67.97a1.383,1.383,0,0,1,1.034,1.656,1.935,1.935,0,0,1-1.921,1.632,3.448,3.448,0,0,1-2.534-.658A1.721,1.721,0,1,0,244,73.479Z" transform="translate(-186.556 -49.771)"/>
  </g>
</svg>
