<svg id="gallery_8_" data-name="gallery (8)" xmlns="http://www.w3.org/2000/svg" width="118.44" height="118.44" viewBox="0 0 118.44 118.44">
  <g id="Group_5028" data-name="Group 5028">
    <g id="Group_5027" data-name="Group 5027">
      <path id="Path_8767" data-name="Path 8767" d="M11.844,85.333H0v82.908a11.841,11.841,0,0,0,11.844,11.844H94.752V168.241H11.844Z" transform="translate(0 -61.645)"/>
      <path id="Path_8768" data-name="Path 8768" d="M168.241,0H97.177A11.841,11.841,0,0,0,85.333,11.844V82.908A11.841,11.841,0,0,0,97.177,94.752h71.064a11.841,11.841,0,0,0,11.844-11.844V11.844A11.841,11.841,0,0,0,168.241,0ZM97.177,82.908,114.943,59.22l12.022,16.049L144.553,53.3l23.688,29.61Z" transform="translate(-61.645)"/>
    </g>
  </g>
</svg>
