<svg xmlns="http://www.w3.org/2000/svg" width="122" height="122" viewBox="0 0 122 122">
  <g id="Group_5042" data-name="Group 5042" transform="translate(-109.048 -328.048)">
    <g id="mannequin" transform="translate(109 328)">
      <g id="Group_4896" data-name="Group 4896">
        <g id="Group_4895" data-name="Group 4895">
          <g id="Group_4894" data-name="Group 4894">
            <g id="Group_4893" data-name="Group 4893">
              <g id="Group_4892" data-name="Group 4892">
                <g id="Group_4891" data-name="Group 4891">
                  <g id="Group_4890" data-name="Group 4890">
                    <g id="Group_4889" data-name="Group 4889">
                      <circle id="Ellipse_352" data-name="Ellipse 352" cx="61" cy="61" r="61" transform="translate(0.048 0.048)" fill="#5c9dff"/>
                    </g>
                  </g>
                </g>
              </g>
            </g>
          </g>
        </g>
      </g>
      <path id="Path_8330" data-name="Path 8330" d="M265.927,102.282,236.158,71.406,177.08,86.615s5.666-5.9,11.843,3.372c.678,1.018-1.643,19.183,0,21.65,10.667,16.02,29.428,38.221,29.428,38.221h0a63.366,63.366,0,0,0,33.7-19.085C266.887,114.573,265.927,102.282,265.927,102.282Z" transform="translate(-145.395 -29.419)" fill="#2488ff"/>
    </g>
    <g id="Electric_Plug" data-name="Electric Plug" transform="translate(137.344 351.983)">
      <path id="Path_8335" data-name="Path 8335" d="M62.547,17.119V25.6a10.6,10.6,0,0,1-10.6,10.6H45.6A10.6,10.6,0,0,1,35,25.6V17.119A2.125,2.125,0,0,1,37.119,15H60.428A2.125,2.125,0,0,1,62.547,17.119Z" transform="translate(1.104 -0.087)" fill="#ffdaaa"/>
      <path id="Path_8336" data-name="Path 8336" d="M62.475,17.119V25.6a10.6,10.6,0,0,1-10.6,10.6H45.523a10.578,10.578,0,0,1-9.3-5.531,10.489,10.489,0,0,0,5.064,1.293h6.357a10.6,10.6,0,0,0,10.6-10.6V15h2.119A2.125,2.125,0,0,1,62.475,17.119Z" transform="translate(1.176 -0.087)" fill="#ffc477"/>
      <g id="Group_4899" data-name="Group 4899" transform="translate(40.342 2.199)">
        <path id="Path_8337" data-name="Path 8337" d="M57.357,15.714v3.179H51V6.179a3.179,3.179,0,0,1,6.357,0Z" transform="translate(-38.286 -3)" fill="#46f8ff"/>
        <path id="Path_8338" data-name="Path 8338" d="M51.357,35.238v3.179a3.179,3.179,0,0,1-6.357,0V34.179a3.179,3.179,0,0,1,6.357,0Z" transform="translate(-38.643 -1.334)" fill="#46f8ff"/>
        <path id="Path_8339" data-name="Path 8339" d="M45.357,15.714v3.179H39V6.179a3.179,3.179,0,0,1,6.357,0Z" transform="translate(-39 -3)" fill="#46f8ff"/>
      </g>
      <rect id="Rectangle_160" data-name="Rectangle 160" width="29" height="33" rx="2" transform="translate(-0.296 0.065)" fill="#57a4ff"/>
      <path id="Path_8340" data-name="Path 8340" d="M28.428,5.119V32.666a2.125,2.125,0,0,1-2.119,2.119H5.119A2.125,2.125,0,0,1,3,32.666V30.547H22.071a2.125,2.125,0,0,0,2.119-2.119V3h2.119a2.125,2.125,0,0,1,2.119,2.119Z" transform="translate(-0.801 -0.801)" fill="#2488ff"/>
      <path id="Path_8341" data-name="Path 8341" d="M21.714,16.476,15.357,29.19V20.714H9L15.357,8v8.476Z" transform="translate(-0.444 -0.503)" fill="#ffde55"/>
      <path id="Path_8342" data-name="Path 8342" d="M41.2,56.035h7.417A3.188,3.188,0,0,0,51.8,52.857V44.232a4.238,4.238,0,0,0,3.179-4.09V37.971a11.666,11.666,0,0,0,10.6-11.6V17.893a3.188,3.188,0,0,0-3.179-3.179h-1.06V6.238a4.238,4.238,0,0,0-8.476,0v8.476H48.619V6.238a4.238,4.238,0,0,0-8.476,0v8.476h-1.06A3.188,3.188,0,0,0,35.9,17.893v8.476a11.666,11.666,0,0,0,10.6,11.6v2.172a4.238,4.238,0,0,0,3.179,4.09v8.624a1.06,1.06,0,0,1-1.06,1.06H41.2a3.173,3.173,0,0,0-3.073,3.963,3.235,3.235,0,0,0,3.189,2.394H62.392a1.06,1.06,0,0,1,1.06,1.06v1.06a1.06,1.06,0,0,1-1.06,1.06H24.25a7.425,7.425,0,0,1-7.417-7.417V35.9h9.536a3.188,3.188,0,0,0,3.179-3.179V5.179A3.188,3.188,0,0,0,26.369,2H5.179A3.188,3.188,0,0,0,2,5.179V32.726A3.188,3.188,0,0,0,5.179,35.9h9.536V56.035a9.55,9.55,0,0,0,9.536,9.536H62.392a3.188,3.188,0,0,0,3.179-3.179v-1.06a3.188,3.188,0,0,0-3.179-3.179H41.319a1.165,1.165,0,0,1-1.144-.795,1.019,1.019,0,0,1,.3-1.017.983.983,0,0,1,.731-.307Zm13.774-49.8a2.119,2.119,0,0,1,4.238,0V17.893H54.976Zm-12.714,0a2.119,2.119,0,1,1,4.238,0V17.893H42.262Zm4.249,29.6a9.536,9.536,0,0,1-8.487-9.472V17.893a1.06,1.06,0,0,1,1.06-1.06h1.06v2.119a1.06,1.06,0,0,0,1.06,1.06h6.357a1.06,1.06,0,0,0,1.06-1.06V16.833h4.238v2.119a1.06,1.06,0,0,0,1.06,1.06h6.357a1.06,1.06,0,0,0,1.06-1.06V16.833h1.06a1.06,1.06,0,0,1,1.06,1.06v8.476a9.536,9.536,0,0,1-8.487,9.472,4.227,4.227,0,1,0-8.455,0Zm2.108,4.3V35.9a2.119,2.119,0,0,1,4.238,0v4.238a2.119,2.119,0,0,1-4.238,0ZM5.179,33.785a1.06,1.06,0,0,1-1.06-1.06V5.179a1.06,1.06,0,0,1,1.06-1.06h21.19a1.06,1.06,0,0,1,1.06,1.06V32.726a1.06,1.06,0,0,1-1.06,1.06Z" transform="translate(-0.86 -0.86)"/>
      <path id="Path_8343" data-name="Path 8343" d="M47,35h2.119v2.119H47Z" transform="translate(1.818 1.104)"/>
      <path id="Path_8344" data-name="Path 8344" d="M22.674,15.974a1.06,1.06,0,0,0-.9-.5h-5.3V8.059a1.06,1.06,0,0,0-.816-1.028,1.043,1.043,0,0,0-1.187.551L8.116,20.3a1.06,1.06,0,0,0,.943,1.536h5.3V29.25a1.06,1.06,0,0,0,.816,1.028.962.962,0,0,0,.244.032,1.06,1.06,0,0,0,.943-.583l6.357-12.714a1.067,1.067,0,0,0-.042-1.038Zm-6.2,8.783V20.774a1.06,1.06,0,0,0-1.06-1.06H10.776l3.581-7.162v3.984a1.06,1.06,0,0,0,1.06,1.06h4.641Z" transform="translate(-0.503 -0.563)"/>
    </g>
  </g>
</svg>
