<svg xmlns="http://www.w3.org/2000/svg" width="242.734" height="167.614" viewBox="0 0 242.734 167.614">
  <g id="Group_5044" data-name="Group 5044" transform="translate(-28.465 -22.246)">
    <g id="Group_4979" data-name="Group 4979" transform="translate(28.465 22.246)">
      <g id="Group_4952" data-name="Group 4952" transform="translate(183.765 132.195)">
        <path id="Path_8648" data-name="Path 8648" d="M1937.545,1426.713a29.1,29.1,0,0,1-5.738-6.28l12.571-7.942s-.018-.029-.054-.084a16.3,16.3,0,0,0,3.151,3.218,19.631,19.631,0,0,0,9.233,4.024c4.4.7,8.933-.766,11.965-2.119a32.512,32.512,0,0,0,5.666-3.214l11.146,2.154-2.095,9.643a46.34,46.34,0,0,1-17.7,7.918A33.606,33.606,0,0,1,1937.545,1426.713Z" transform="translate(-1931.807 -1412.408)" fill="#b75742"/>
      </g>
      <path id="Path_8649" data-name="Path 8649" d="M2116.32,563.314l2.951-1.53,2.931,1.564a.457.457,0,0,0,.666-.478l-.543-3.279,2.394-2.306a.457.457,0,0,0-.249-.78l-3.286-.5-1.454-2.989a.457.457,0,0,0-.82,0l-1.487,2.971-3.292.459a.457.457,0,0,0-.257.778l2.366,2.333-.582,3.272A.457.457,0,0,0,2116.32,563.314Z" transform="translate(-1908.628 -521.432)" fill="#86b1f2"/>
      <rect id="Rectangle_213" data-name="Rectangle 213" width="145.17" height="15.196" transform="translate(56.335 101.916)" fill="#f47257"/>
      <g id="Group_4954" data-name="Group 4954" transform="translate(58.094 76.779)">
        <path id="Path_8650" data-name="Path 8650" d="M965.534,1019.027a280.338,280.338,0,0,0-104.8-31.4q2.028-23.76,4.058-47.519a324.127,324.127,0,0,1,121.17,36.307Z" transform="translate(-860.736 -940.106)" fill="#3c8f7c"/>
        <path id="Path_8651" data-name="Path 8651" d="M888.163,1005.75l2.765-29.636c3.836.393,7.273-2.082,7.691-5.631a321.751,321.751,0,0,1,101.594,30.441c-1.428,3.246.248,7.253,3.7,9.045q-6.271,13.353-12.542,26.707a6.031,6.031,0,0,0-8.372,2.958,282.546,282.546,0,0,0-89.215-26.732A6.393,6.393,0,0,0,888.163,1005.75Z" transform="translate(-884.945 -966.919)" fill="#96d9c9"/>
        <g id="Group_4953" data-name="Group 4953" transform="translate(16.06 18.48)">
          <path id="Path_8652" data-name="Path 8652" d="M1285.032,1119.586a16.449,16.449,0,0,1-20.49,10.232,17.553,17.553,0,0,1-11.958-20.248c1.891-8.808,11.254-14.086,20.746-11.15S1287.979,1111.1,1285.032,1119.586Z" transform="translate(-1222.334 -1097.604)" fill="#50bfa5"/>
          <path id="Path_8653" data-name="Path 8653" d="M1329.693,1163.033q.354-1.423.707-2.845a15.415,15.415,0,0,1-3.44-1.612,1.836,1.836,0,0,1-.662-2.384l.052-.1a1.765,1.765,0,0,1,2.546-.621,11.322,11.322,0,0,0,3.154,1.461c1.723.482,3.072.171,3.384-1.024.294-1.133-.491-2.14-2.577-3.523-3.015-1.992-4.94-4.071-4.275-6.993.6-2.648,3.044-4.231,6.6-3.92q.349-1.423.7-2.848,1.57.435,3.136.886-.336,1.315-.672,2.631a14.449,14.449,0,0,1,2.786,1.241,1.828,1.828,0,0,1,.727,2.479h0a1.854,1.854,0,0,1-2.589.549,10.356,10.356,0,0,0-2.659-1.172c-2.043-.58-2.91.084-3.114.922-.243.992.7,1.914,3.09,3.629,3.362,2.326,4.368,4.432,3.629,7.1-.736,2.648-3.245,4.31-6.831,3.916q-.394,1.524-.789,3.047Q1331.148,1163.436,1329.693,1163.033Z" transform="translate(-1287.555 -1133.81)" fill="#3c8f7c"/>
          <path id="Path_8654" data-name="Path 8654" d="M1022.868,1127.054q-12.515-2.888-25.251-4.7.294-2.285.589-4.569,12.9,1.833,25.605,4.765Z" transform="translate(-997.617 -1115.418)" fill="#50bfa5"/>
          <path id="Path_8655" data-name="Path 8655" d="M1589.181,1283.167q-11.647-5.7-23.681-10.365l1.522-4.324q12.191,4.73,24.012,10.509Z" transform="translate(-1498.869 -1248.429)" fill="#50bfa5"/>
        </g>
      </g>
      <g id="Group_4956" data-name="Group 4956" transform="translate(60.005 54.461)">
        <path id="Path_8656" data-name="Path 8656" d="M995.208,796.764a253.145,253.145,0,0,0-94.793,41.678l-23.39-40.359a292.689,292.689,0,0,1,109.6-48.19Z" transform="translate(-877.025 -749.893)" fill="#3c8f7c"/>
        <path id="Path_8657" data-name="Path 8657" d="M947.067,863.369l-14.414-25.32a7.444,7.444,0,0,0,2.55-9.367,290.491,290.491,0,0,1,91.9-40.4,6.419,6.419,0,0,0,7.756,4.836q2.785,14.6,5.571,29.208a6.356,6.356,0,0,0-4.537,7.676,255.091,255.091,0,0,0-80.7,35.481A5.512,5.512,0,0,0,947.067,863.369Z" transform="translate(-926.126 -783.773)" fill="#96d9c9"/>
        <g id="Group_4955" data-name="Group 4955" transform="translate(20.87 20.934)">
          <path id="Path_8658" data-name="Path 8658" d="M1306.931,949.414c2.54,8.632-1.773,17.86-9.443,21.165-7.678,3.285-16.572-.273-20.07-8.494a17.109,17.109,0,0,1,9.123-22.057A14.792,14.792,0,0,1,1306.931,949.414Z" transform="translate(-1250.194 -937.495)" fill="#50bfa5"/>
          <path id="Path_8659" data-name="Path 8659" d="M1360.45,1005.1l-1.058-2.712a13.4,13.4,0,0,1-3.434.907,1.668,1.668,0,0,1-1.812-1.475c-.006-.037-.012-.075-.017-.112a1.825,1.825,0,0,1,1.534-2.113,9.852,9.852,0,0,0,3.139-.844c1.54-.713,2.362-1.818,1.93-2.966-.412-1.088-1.551-1.389-3.859-1.163-3.332.334-5.907-.094-7.04-2.84-1.026-2.487-.1-5.3,2.7-7.315q-.533-1.354-1.067-2.708,1.4-.653,2.808-1.29l.965,2.519a12.663,12.663,0,0,1,2.745-.785,1.66,1.66,0,0,1,1.913,1.509h0a1.909,1.909,0,0,1-1.607,2.083,9.026,9.026,0,0,0-2.612.759c-1.831.838-2.1,1.917-1.787,2.713.371.943,1.581,1.075,4.3.919,3.773-.288,5.685.746,6.622,3.339.927,2.573,0,5.49-2.868,7.457q.556,1.462,1.11,2.924Q1361.747,1004.49,1360.45,1005.1Z" transform="translate(-1314.87 -974.344)" fill="#3c8f7c"/>
          <path id="Path_8660" data-name="Path 8660" d="M1078.248,1131.315q-10.843,5.662-21.249,12.322-1.052-2-2.1-4.007,10.543-6.749,21.547-12.494Z" transform="translate(-1054.897 -1103.808)" fill="#50bfa5"/>
          <path id="Path_8661" data-name="Path 8661" d="M1588.142,932.811q-11.76,2.878-23.234,6.819-.64-2.2-1.278-4.406,11.626-3.992,23.56-6.914Q1587.666,930.561,1588.142,932.811Z" transform="translate(-1503.939 -928.31)" fill="#50bfa5"/>
        </g>
      </g>
      <g id="Group_4958" data-name="Group 4958" transform="translate(66.113 82.68)">
        <path id="Path_8662" data-name="Path 8662" d="M1046.545,1038.573a256.871,256.871,0,0,0-103.679,15.2l-13.786-45.263a297,297,0,0,1,119.876-17.569Q1047.751,1014.755,1046.545,1038.573Z" transform="translate(-929.08 -990.396)" fill="#3c8f7c"/>
        <path id="Path_8663" data-name="Path 8663" d="M980.534,1063.219l-8.391-28.328a7.165,7.165,0,0,0,4.711-8.389,294.754,294.754,0,0,1,100.51-14.731,6.777,6.777,0,0,0,6.562,6.737q-.641,14.873-1.281,29.745a6.148,6.148,0,0,0-6.286,6.226,258.847,258.847,0,0,0-88.262,12.936A5.827,5.827,0,0,0,980.534,1063.219Z" transform="translate(-967.09 -1009.161)" fill="#96d9c9"/>
        <g id="Group_4957" data-name="Group 4957" transform="translate(18.693 9.198)">
          <path id="Path_8664" data-name="Path 8664" d="M1371.155,1083.444c.508,9.029-5.918,16.815-14.292,17.979a16.148,16.148,0,0,1-17.917-13.543,16.487,16.487,0,0,1,14.181-18.927A15.639,15.639,0,0,1,1371.155,1083.444Z" transform="translate(-1309.342 -1068.793)" fill="#50bfa5"/>
          <path id="Path_8665" data-name="Path 8665" d="M1427.2,1132.12q-.207-1.453-.417-2.905a13.837,13.837,0,0,1-3.615-.033,1.753,1.753,0,0,1-1.454-1.908c0-.038.007-.076.01-.114a1.773,1.773,0,0,1,2.013-1.638,10.182,10.182,0,0,0,3.308.016c1.693-.281,2.765-1.133,2.6-2.359-.155-1.162-1.213-1.755-3.553-2.149-3.381-.56-5.834-1.657-6.317-4.615-.438-2.679,1.133-5.156,4.379-6.365q-.214-1.452-.426-2.9,1.54-.26,3.083-.5.185,1.347.37,2.694a13.013,13.013,0,0,1,2.9-.031,1.741,1.741,0,0,1,1.544,1.967h0a1.856,1.856,0,0,1-2.078,1.59,9.309,9.309,0,0,0-2.767.042c-2.01.325-2.53,1.3-2.4,2.152.148,1.011,1.317,1.459,4.045,2.029,3.807.722,5.461,2.23,5.787,4.988.319,2.736-1.281,5.313-4.58,6.456q.21,1.562.42,3.124Q1428.623,1131.88,1427.2,1132.12Z" transform="translate(-1380.831 -1102.202)" fill="#3c8f7c"/>
          <path id="Path_8666" data-name="Path 8666" d="M1113.487,1212.751q-12.067,2.606-23.935,6.29-.576-2.218-1.151-4.436,12.023-3.734,24.27-6.377Q1113.079,1210.49,1113.487,1212.751Z" transform="translate(-1088.401 -1191.868)" fill="#50bfa5"/>
          <path id="Path_8667" data-name="Path 8667" d="M1674.97,1159.125q-12.328-.334-24.622.437-.12-2.3-.24-4.6,12.454-.78,24.966-.444Q1675.022,1156.821,1674.97,1159.125Z" transform="translate(-1584.202 -1144.368)" fill="#50bfa5"/>
        </g>
      </g>
      <rect id="Rectangle_214" data-name="Rectangle 214" width="145.17" height="63.89" transform="translate(56.335 101.916)" fill="#f47257"/>
      <path id="Path_8668" data-name="Path 8668" d="M1756.038,1559.848h-35.922a2.953,2.953,0,0,0-2.884,3.019h0a2.953,2.953,0,0,0,2.884,3.019h-4.659a2.955,2.955,0,0,0-2.883,3.021h0a2.954,2.954,0,0,0,2.883,3.02h.808a2.954,2.954,0,0,0-2.884,3.02,3.116,3.116,0,0,0,.243,1.212h42.414Z" transform="translate(-1554.532 -1410.354)" fill="#b75742"/>
      <rect id="Rectangle_215" data-name="Rectangle 215" width="132.151" height="4.961" transform="translate(61.685 105.061)" fill="#b75742"/>
      <g id="Group_4959" data-name="Group 4959" transform="translate(54.737 125.334)">
        <path id="Rectangle_216" data-name="Rectangle 216" d="M19.84,0H49.552a19.84,19.84,0,0,1,19.84,19.84v0A19.839,19.839,0,0,1,49.552,39.679H19.84A19.84,19.84,0,0,1,0,19.84v0A19.84,19.84,0,0,1,19.84,0Z" transform="translate(0 0)" fill="#3c8f7c"/>
        <rect id="Rectangle_217" data-name="Rectangle 217" width="17.088" height="9.935" transform="translate(4.461 7.891)" fill="#f7cc7f"/>
        <rect id="Rectangle_218" data-name="Rectangle 218" width="30.303" height="1.855" transform="translate(34.696 5.374)" fill="#f7cc7f"/>
        <rect id="Rectangle_219" data-name="Rectangle 219" width="55.768" height="2.291" transform="translate(6.978 26.568)" fill="#f7cc7f"/>
        <rect id="Rectangle_220" data-name="Rectangle 220" width="55.768" height="2.291" transform="translate(6.978 31.963)" fill="#f7cc7f"/>
      </g>
      <rect id="Rectangle_221" data-name="Rectangle 221" width="61.618" height="1.647" transform="translate(63.363 118.228)" fill="#b75742"/>
      <g id="Group_4961" data-name="Group 4961" transform="translate(146.528 80.144)">
        <circle id="Ellipse_387" data-name="Ellipse 387" cx="13.723" cy="13.723" r="13.723" fill="#fae0b2"/>
        <path id="Path_8669" data-name="Path 8669" d="M1654.19,992.49a11.515,11.515,0,1,1-16.041-2.81A11.516,11.516,0,0,1,1654.19,992.49Z" transform="translate(-1631.041 -985.383)" fill="#f7cc7f"/>
        <g id="Group_4960" data-name="Group 4960" transform="translate(8.855 5.339)">
          <path id="Path_8670" data-name="Path 8670" d="M1696.112,1030.77l-.5-1.856a9.344,9.344,0,0,1-2.451.216,1.17,1.17,0,0,1-1.11-1.154v-.074a1.168,1.168,0,0,1,1.24-1.183,6.813,6.813,0,0,0,2.217-.208c1.113-.3,1.759-.937,1.548-1.718-.2-.742-.953-1.042-2.53-1.14-2.28-.138-3.971-.729-4.483-2.623-.465-1.719.382-3.395,2.361-4.37l-.5-1.855,1.915-.518.464,1.719a8.635,8.635,0,0,1,1.853-.225,1.168,1.168,0,0,1,1.167,1.155h0a1.168,1.168,0,0,1-1.193,1.185,6.227,6.227,0,0,0-1.782.221c-1.27.344-1.532,1-1.384,1.548.175.645.969.87,2.8,1.046,2.546.191,3.774,1.012,4.249,2.77.471,1.739-.358,3.556-2.5,4.554l.54,1.993Z" transform="translate(-1689.915 -1014.286)" fill="#fff"/>
        </g>
      </g>
      <g id="Group_4963" data-name="Group 4963" transform="translate(153.79 118.379)">
        <circle id="Ellipse_388" data-name="Ellipse 388" cx="13.723" cy="13.723" r="13.723" transform="translate(0 19.407) rotate(-45)" fill="#fae0b2"/>
        <path id="Path_8671" data-name="Path 8671" d="M1764.529,1366.806a11.515,11.515,0,1,1-16.041-2.81A11.516,11.516,0,0,1,1764.529,1366.806Z" transform="translate(-1735.696 -1354.015)" fill="#f7cc7f"/>
        <g id="Group_4962" data-name="Group 4962" transform="translate(14.539 11.023)">
          <path id="Path_8672" data-name="Path 8672" d="M1806.451,1405.087l-.5-1.856a9.318,9.318,0,0,1-2.451.216,1.171,1.171,0,0,1-1.11-1.154v-.074a1.167,1.167,0,0,1,1.239-1.183,6.84,6.84,0,0,0,2.218-.208c1.113-.3,1.759-.937,1.547-1.718-.2-.742-.953-1.043-2.53-1.14-2.28-.137-3.971-.728-4.483-2.624-.465-1.719.382-3.394,2.361-4.37l-.5-1.856,1.914-.517.465,1.719a8.653,8.653,0,0,1,1.852-.225,1.168,1.168,0,0,1,1.168,1.155h0a1.169,1.169,0,0,1-1.193,1.185,6.213,6.213,0,0,0-1.782.22c-1.27.343-1.532,1-1.384,1.548.174.645.968.87,2.8,1.046,2.546.192,3.774,1.013,4.25,2.771.47,1.739-.359,3.556-2.5,4.554l.54,1.992Z" transform="translate(-1800.254 -1388.603)" fill="#fff"/>
        </g>
      </g>
      <g id="Group_4965" data-name="Group 4965" transform="translate(131.322 105.402)">
        <circle id="Ellipse_389" data-name="Ellipse 389" cx="13.723" cy="13.723" r="13.723" transform="matrix(1, -0.017, 0.017, 1, 1.255, 1.712)" fill="#fae0b2"/>
        <circle id="Ellipse_390" data-name="Ellipse 390" cx="11.515" cy="11.515" r="11.515" transform="translate(0 9.37) rotate(-24.006)" fill="#f7cc7f"/>
        <g id="Group_4964" data-name="Group 4964" transform="translate(9.715 7.109)">
          <path id="Path_8673" data-name="Path 8673" d="M1569.57,1260.128l.655-1.808a9.351,9.351,0,0,1-2.13-1.231,1.169,1.169,0,0,1-.245-1.581l.042-.062a1.168,1.168,0,0,1,1.694-.257,6.8,6.8,0,0,0,1.935,1.1c1.084.394,1.978.244,2.254-.517.262-.723-.181-1.4-1.417-2.387-1.787-1.423-2.831-2.877-2.161-4.722.606-1.675,2.262-2.559,4.442-2.221l.655-1.807,1.864.675-.606,1.674a8.7,8.7,0,0,1,1.645.88,1.169,1.169,0,0,1,.292,1.617h0a1.17,1.17,0,0,1-1.658.284,6.208,6.208,0,0,0-1.585-.843c-1.237-.449-1.83-.06-2.022.472-.228.627.293,1.269,1.689,2.464,1.975,1.619,2.508,3,1.887,4.71-.614,1.693-2.336,2.7-4.662,2.291l-.7,1.94Z" transform="translate(-1567.645 -1244.639)" fill="#fff"/>
        </g>
      </g>
      <rect id="Rectangle_222" data-name="Rectangle 222" width="62.152" height="33.309" transform="translate(131.685 128.519)" fill="#f48c7f"/>
      <path id="Path_8674" data-name="Path 8674" d="M1717.232,1562.867h0a2.953,2.953,0,0,0,2.884,3.019h-4.659a2.955,2.955,0,0,0-2.883,3.021h0a2.954,2.954,0,0,0,2.883,3.02h.808a2.759,2.759,0,0,0-1.159.254h33.263v-12.333h-28.252A2.953,2.953,0,0,0,1717.232,1562.867Z" transform="translate(-1554.532 -1410.354)" fill="#b75742"/>
      <g id="Group_4967" data-name="Group 4967" transform="translate(5.526 151.443)">
        <g id="Group_4966" data-name="Group 4966" transform="translate(0 12.415)">
          <path id="Path_8675" data-name="Path 8675" d="M412.709,1683.241h0a.94.94,0,0,0,.9.974H638.946a.941.941,0,0,0,.9-.974h0a.941.941,0,0,0-.9-.974H413.613A.94.94,0,0,0,412.709,1683.241Z" transform="translate(-412.709 -1682.267)" fill="#13375b"/>
        </g>
        <path id="Path_8676" data-name="Path 8676" d="M1786.771,1673.722h-37.1a2.7,2.7,0,0,1-2.7-2.7h0a2.7,2.7,0,0,1,2.7-2.7h37.1a2.694,2.694,0,0,1,2.694,2.7h0A2.7,2.7,0,0,1,1786.771,1673.722Z" transform="translate(-1590.428 -1657.551)" fill="#f7cc7f"/>
        <path id="Path_8677" data-name="Path 8677" d="M1780.344,1627.783h-37.1a2.7,2.7,0,0,1-2.7-2.7h0a2.7,2.7,0,0,1,2.7-2.7h37.1a2.7,2.7,0,0,1,2.695,2.7h0A2.7,2.7,0,0,1,1780.344,1627.783Z" transform="translate(-1584.755 -1617.003)" fill="#fae0b2"/>
        <path id="Path_8678" data-name="Path 8678" d="M1817.443,1581.843h-37.1a2.7,2.7,0,0,1-2.695-2.7h0a2.7,2.7,0,0,1,2.695-2.695h37.1a2.7,2.7,0,0,1,2.7,2.695h0A2.7,2.7,0,0,1,1817.443,1581.843Z" transform="translate(-1617.501 -1576.453)" fill="#f7cc7f"/>
      </g>
      <path id="Path_8679" data-name="Path 8679" d="M1653.817,626.77l.472,3.193-5.053,1.327.114,4.754-3.62,1.611.816,1.832,4.841-2.155-.108-4.505,5.257-1.38-.71-4.8Z" transform="translate(-1495.531 -586.642)" fill="#466eb6"/>
      <g id="Group_4968" data-name="Group 4968" transform="translate(108.075 9.312)">
        <path id="Path_8680" data-name="Path 8680" d="M1289.133,385.8l.974-2.417a12.645,12.645,0,0,1-2.827-1.771,1.586,1.586,0,0,1-.258-2.154l.06-.081a1.583,1.583,0,0,1,2.307-.266,9.222,9.222,0,0,0,2.568,1.587c1.45.584,2.668.424,3.078-.593.39-.966-.178-1.905-1.8-3.3-2.354-2.013-3.7-4.033-2.7-6.5.9-2.239,3.187-3.359,6.124-2.8l.974-2.417,2.493,1-.9,2.239a11.7,11.7,0,0,1,2.187,1.27,1.583,1.583,0,0,1,.319,2.2h0a1.584,1.584,0,0,1-2.259.305,8.438,8.438,0,0,0-2.107-1.218c-1.654-.666-2.475-.169-2.762.543-.338.839.337,1.732,2.171,3.418,2.6,2.288,3.254,4.18,2.332,6.469-.912,2.264-3.294,3.552-6.424,2.881l-1.046,2.6Z" transform="translate(-1286.715 -365.093)" fill="#96d9c9"/>
      </g>
      <path id="Path_8681" data-name="Path 8681" d="M1225.573,658.575a1.013,1.013,0,0,1-.174,1.275,9.966,9.966,0,0,1-3.162,1.907,8.006,8.006,0,0,1-6.157-.085,7.375,7.375,0,0,1-3.169-2.882l-1.169.439a.769.769,0,0,1-.99-.45l-.011-.03a.768.768,0,0,1,.45-.99l.96-.36c-.154-.318-.263-.517-.331-.7a7.6,7.6,0,0,1-.3-1.083l-.99.372a.77.77,0,0,1-.99-.45h0a.769.769,0,0,1,.45-.99l1.2-.45a7.9,7.9,0,0,1,.573-4.218,8.494,8.494,0,0,1,4.824-4.377,8.672,8.672,0,0,1,3-.6,1.037,1.037,0,0,1,1.047.988v.017a1.04,1.04,0,0,1-1,1.085,7.448,7.448,0,0,0-2.335.5,5.533,5.533,0,0,0-3.148,2.824,4.615,4.615,0,0,0-.352,2.8l6.749-2.533a.769.769,0,0,1,.99.45h0a.769.769,0,0,1-.449.99l-7.049,2.645c.094.341.188.682.267.892.1.27.2.54.367.889l7.063-2.651a.786.786,0,0,1,1.011.459h0a.785.785,0,0,1-.459,1.011l-6.764,2.539a4.885,4.885,0,0,0,1.98,1.72,5.4,5.4,0,0,0,4.33.051,8.451,8.451,0,0,0,2.253-1.27,1.013,1.013,0,0,1,1.49.262Z" transform="translate(-1110.472 -602.766)" fill="#86b1f2"/>
      <path id="Path_8682" data-name="Path 8682" d="M1100.744,494.8l-3.064.311-1.044-4.875-4.536-.1-1.379-3.521-1.782.7,1.844,4.708,4.3.093,1.087,5.071,4.611-.468Z" transform="translate(-1004.068 -463.046)" fill="#50bfa5"/>
      <g id="Group_4969" data-name="Group 4969" transform="translate(128.459 22.734)">
        <path id="Path_8683" data-name="Path 8683" d="M1464.071,484.862l3.278,1.081s5.2-1.684,5.71-2.743.656-3.63,1.4-3.7a2.24,2.24,0,0,1,2.51,1.93c.247,1.277-1.623,4.968-1.331,5.361a17.959,17.959,0,0,0,3.421,1.392,2.556,2.556,0,0,1,1.691,2.061v0a1.407,1.407,0,0,1-.879,1.512l-.943.364.3.974a1.406,1.406,0,0,1-.89,1.744l-.729.245.234.593a1.406,1.406,0,0,1-.908,1.859l-.637.185.026.17a1.4,1.4,0,0,1-1.022,1.571l-.633.166-8.731-2.881a6.23,6.23,0,0,1-2.213-1.285l-2.9-1.53a.721.721,0,0,1-.338-.876l2.688-7.741A.719.719,0,0,1,1464.071,484.862Z" transform="translate(-1460.443 -479.489)" fill="#fae0b2"/>
      </g>
      <path id="Path_8684" data-name="Path 8684" d="M995.443,735.508l.694-3.44,3.227-1.379a.482.482,0,0,0,.047-.864l-3.057-1.724-.314-3.5a.482.482,0,0,0-.807-.312l-2.583,2.375-3.422-.782a.482.482,0,0,0-.546.671l1.461,3.191-1.8,3.012a.482.482,0,0,0,.469.726l3.486-.4,2.309,2.644A.482.482,0,0,0,995.443,735.508Z" transform="translate(-915.215 -672.724)" fill="#f7cc7f"/>
      <g id="Group_4972" data-name="Group 4972">
        <g id="Group_4970" data-name="Group 4970" transform="translate(0 58.586)">
          <path id="Path_8685" data-name="Path 8685" d="M652.355,1541.029a45.891,45.891,0,0,0-4.979,4.027c-.976,1.332,7.288,3.825,6.386,2.265-.208-.359-.8-1.567-.828-1.685-.138-.635,1.614-2.346,1.614-2.346Z" transform="translate(-614.244 -1452.328)" fill="#f7a491"/>
          <path id="Path_8686" data-name="Path 8686" d="M651.237,1566.792l-2.921-4.128a7.962,7.962,0,0,1-3.7-2.529,6.846,6.846,0,0,0-2.718,2.034,47.638,47.638,0,0,0,4.969,4.479,13.811,13.811,0,0,0,4.254,2.416C653.594,1569.9,651.237,1566.792,651.237,1566.792Z" transform="translate(-609.484 -1469.192)" fill="#f7cc7f"/>
          <path id="Path_8687" data-name="Path 8687" d="M367.769,1055.957s.529.468.716.61c.219.167.913.618.913.618s2.511,1.428,2.6,1.24a1.243,1.243,0,0,0-.043-.873c-.124-.143-.486-.29-.61-.433a.46.46,0,0,1-.007-.589c.16-.159,1.018.309,1.018.309a3.2,3.2,0,0,1,.986.853,4.144,4.144,0,0,1,.836,1.914,39.055,39.055,0,0,0,3.681,1.84s10.529,4.376,11.1,4.615h.007a3.056,3.056,0,0,1-.318,1.368c-.252,1.5-.7,1.6-1.041,3.054-1.615-.817-12.794-6.975-13.93-7.616,0,0-1.7-.291-2.766-.508a9.487,9.487,0,0,1-2.283-1,9.969,9.969,0,0,1-2.042-1.237c-.9-.7.263-.436.263-.436s1.9,1.005,1.945.845c.038-.123-1.028-.612-2.034-1.375-.259-.2-.513-.391-.745-.572-.61-.474-.5-.971.211-.574a8.075,8.075,0,0,1,.938.6,6.46,6.46,0,0,0,.911.51,8.624,8.624,0,0,0,.942.52c0-.038.15-.05-.118-.268-.323-.26-1.126-.666-1.572-1.085-.253-.237-.81-.7-.81-.7a6.979,6.979,0,0,1-.68-.911c.189-.306.839.145,1.141.511a5.36,5.36,0,0,1,.883.644s1.381.771,1.488.582a18.217,18.217,0,0,0-1.441-1.332c-.644-.63-1.193-1.367-1.091-1.509C366.981,1055.331,367.769,1055.957,367.769,1055.957Z" transform="translate(-365.608 -1023.781)" fill="#f8a492"/>
          <path id="Path_8688" data-name="Path 8688" d="M634.339,1263.711l.681,3.365,17.105,15.559-12.244,12.391,3.306,3.379s18.083-13.28,18.736-15.02c1-2.679-12.963-20.426-12.963-20.426Z" transform="translate(-602.808 -1206.885)" fill="#b75742"/>
          <path id="Path_8689" data-name="Path 8689" d="M501.512,1616.2s-3.451,3.761-4.128,4.686c-.976,1.333,6.311,3.3,5.41,1.74-.208-.359-.8-1.567-.828-1.685-.138-.636,1.614-2.347,1.614-2.347Z" transform="translate(-481.843 -1518.68)" fill="#f7a491"/>
          <path id="Path_8690" data-name="Path 8690" d="M499.363,1656.887l-4.75-1.735a7.439,7.439,0,0,1-4.532.147,6.29,6.29,0,0,0-1.026,3.09s9,1.148,11.508.431S499.363,1656.887,499.363,1656.887Z" transform="translate(-474.571 -1553.061)" fill="#f7cc7f"/>
          <path id="Path_8691" data-name="Path 8691" d="M530.928,1272.642l.768,21.231-15.178,18.61,4.106,2.249s16.79-14.41,18.633-18.424c1.144-2.491,4.991-25,4.991-25Z" transform="translate(-498.812 -1214.257)" fill="#f47458"/>
          <path id="Path_8692" data-name="Path 8692" d="M669.246,1035.176c-1.392-3.14-1.23-25.65-6.645-30.922-1.9.322-3.264.5-3.581.586-.282,2.319-.593,10.827-.784,18.626-.127,5.2,0,10.644-.636,13.516C657.2,1038.762,670.517,1038.045,669.246,1035.176Z" transform="translate(-623.332 -978.534)" fill="#fae0b2"/>
          <path id="Path_8693" data-name="Path 8693" d="M463.131,1010.351c-1.52.347-2.639.59-4.631,3.533-1.907,2.817-6.142,9.5-6.142,9.5l-11.154-4.954-.521,5.65s12.619,6.559,14.4,5.968,6.786-7.908,7.156-8.4c.087-.116-.42,7.814-.42,9.082s-2.419,12.3-2.419,12.3,6.138,1.511,7.336-1.233c3.673-8.414.854-32.615.854-32.615S464.225,1010.1,463.131,1010.351Z" transform="translate(-431.874 -982.883)" fill="#466eb6"/>
          <path id="Path_8694" data-name="Path 8694" d="M820.069,788.422a3.341,3.341,0,0,1-.75-1.939l-.209-.8c.19-.078,3.91-.607,5.032-.636a2.043,2.043,0,0,1,.129.846c-.167.917-1.338,6.87-1.338,6.87l-3.2.064S820.426,789.3,820.069,788.422Z" transform="translate(-765.9 -785.045)" fill="#f7a491"/>
          <path id="Path_8695" data-name="Path 8695" d="M710.992,861.822s2.2,6.255,4.007,5.354,11.971-11.261,12.072-11.761.8-13.217.8-13.217l-4.019-.8-2.311,10.413s-7.436,7.109-8.943,7.81A2.793,2.793,0,0,0,710.992,861.822Z" transform="translate(-670.468 -834.784)" fill="#466eb6"/>
          <path id="Path_8696" data-name="Path 8696" d="M707.484,1030.063a6.81,6.81,0,0,0,2.477-.412s-2.317-13.06-3.664-26.01c-.532-5.116-1.026-7.213-3.136-6.843-.611.107-2.264.737-2.864.838,5.3,15.006,5.322,26.557,6.073,29.907C706.746,1029.223,707.074,1030.073,707.484,1030.063Z" transform="translate(-661.027 -971.915)" fill="#466eb6"/>
          <path id="Path_8697" data-name="Path 8697" d="M665.949,959.239l.556,2.267s.127,1.973-.789,2.151c-1.105.214-2.747-1.439-2.747-1.439l-.951-6.394Z" transform="translate(-627.24 -935.786)" fill="#f7a491"/>
          <path id="Path_8698" data-name="Path 8698" d="M665.949,959.239l.556,2.267s.127,1.973-.789,2.151c-1.105.214-2.747-1.439-2.747-1.439l-.951-6.394Z" transform="translate(-627.24 -935.786)" fill="#f7a491"/>
          <path id="Path_8699" data-name="Path 8699" d="M662.1,956.075l3.922,3.386.416,1.694A6.567,6.567,0,0,1,662.1,956.075Z" transform="translate(-627.31 -936.008)" fill="#f47458"/>
          <path id="Path_8700" data-name="Path 8700" d="M663.7,905.935a2.317,2.317,0,0,1,2.136,1.6,20.141,20.141,0,0,1,.856,3.283c.415,2.459-.985,4.71-2.2,4.889a4.61,4.61,0,0,1-4.762-4.11c-.275-1.493-.637-3.452.591-4.48A5.52,5.52,0,0,1,663.7,905.935Z" transform="translate(-624.973 -891.751)" fill="#f7a491"/>
          <path id="Path_8701" data-name="Path 8701" d="M631.35,890.272s-4.295-3.828-4.483-6.818,2.574-4.592,4.936-4.675a16.051,16.051,0,0,1,2.89.149c2.366.3,3.9,1.347,3.359,3.285-.725,2.6-5.635.407-6.639,1.214-.828.667.515,2.27-.29,2.882-.756.574-.371.38-.121,1.473A19.318,19.318,0,0,1,631.35,890.272Z" transform="translate(-596.206 -867.77)" fill="#184655"/>
          <path id="Path_8702" data-name="Path 8702" d="M650.848,936.6c.106.717.544,1.246.978,1.181s.7-.7.593-1.413-.545-1.245-.978-1.181S650.742,935.885,650.848,936.6Z" transform="translate(-617.36 -917.567)" fill="#f7a491"/>
          <path id="Path_8703" data-name="Path 8703" d="M829.142,787.665a5.154,5.154,0,0,1,1.387,1.311s1.812-1.161,1.748-1.529c-.084-.488-1.936.418-1.936.418Z" transform="translate(-774.755 -787.038)" fill="#f47458"/>
        </g>
        <g id="Group_4971" data-name="Group 4971" transform="translate(4.889)">
          <path id="Path_8704" data-name="Path 8704" d="M410.071,320.894l48.906,25.181a5.607,5.607,0,0,0,7.431-2.724L478.9,319.1a5.606,5.606,0,0,0-2.1-7.632l-48.906-25.181a5.606,5.606,0,0,0-7.431,2.725l-12.489,24.255A5.606,5.606,0,0,0,410.071,320.894Z" transform="translate(-407.276 -285.729)" fill="#96d9c9"/>
          <rect id="Rectangle_223" data-name="Rectangle 223" width="8.277" height="65.727" transform="translate(0.977 26.988) rotate(-62.756)" fill="#355389"/>
        </g>
        <rect id="Rectangle_224" data-name="Rectangle 224" width="14.491" height="8.038" transform="translate(24.543 4.017) rotate(27.293)" fill="#f7cc7f"/>
        <path id="Path_8705" data-name="Path 8705" d="M820.258,775.719c-.085-.23-.253-.551-.17-.677.521-.8-.041-1.663-.42-.985a4.255,4.255,0,0,0-.573,1.71c.024.326.355,1.57.355,1.57A1.155,1.155,0,0,0,820.258,775.719Z" transform="translate(-765.884 -716.545)" fill="#f7a491"/>
      </g>
      <g id="Group_4978" data-name="Group 4978" transform="translate(166.502 11.983)">
        <g id="Group_4977" data-name="Group 4977" transform="translate(0 0)">
          <g id="Group_4974" data-name="Group 4974" transform="translate(16.068 28.114)">
            <path id="Path_8706" data-name="Path 8706" d="M2015.863,1504.215a30.813,30.813,0,0,0-.056,4.967c.131.653.859,2,.525,2.609a1.664,1.664,0,0,1-.716.768l-8.659.137c-.473.008-.161-.29.22-.565a17.519,17.519,0,0,1,3.113-1.694c.13-.062.6-.357.772-.459a5.962,5.962,0,0,0,1.238-1.076c.622-.681.676-3.982.676-3.982Z" transform="translate(-1996.733 -1401.345)" fill="#f7a491"/>
            <path id="Path_8707" data-name="Path 8707" d="M2003.675,1072.427s-3.722-1.835-3.006,2.156,6.17,48.868,6.17,48.868l5.107.283s.653-14.962.509-17.111a39.181,39.181,0,0,0-.989-5.472l-.434-13.274-4.818-16.389Z" transform="translate(-1991.314 -1019.391)" fill="#355389"/>
            <path id="Path_8708" data-name="Path 8708" d="M2006.37,1551.887a7.962,7.962,0,0,0,4.93-.19,3.853,3.853,0,0,1,.4,2.027c-.21.6-.484.871-.749.877-2.092.054-7.688,0-9.283.016a.256.256,0,0,1-.2-.421C2001.858,1553.733,2006.2,1551.99,2006.37,1551.887Z" transform="translate(-1992.04 -1443.256)" fill="#3c8f7c"/>
            <path id="Path_8709" data-name="Path 8709" d="M1933.4,653.537s-3.146-6.055-3.635-8.278-2.179-13.417-2.036-14.138,2.815-2.456,2.486-3.068-2.877-.614-3.459-.562a5.274,5.274,0,0,0-2.257.806c-.5.414.564,13.828.882,16.717s4.228,11.782,4.228,11.782Z" transform="translate(-1924.045 -627.471)" fill="#f7a491"/>
            <g id="Group_4973" data-name="Group 4973" transform="translate(4.839 16.63)">
              <path id="Path_8710" data-name="Path 8710" d="M2210.329,1204.041a30.836,30.836,0,0,0,3.173-3.822c.311-.589.59-2.091,1.236-2.357a1.663,1.663,0,0,1,1.04-.145l6.811,5.349c.371.291-.06.326-.528.3a17.568,17.568,0,0,1-3.484-.646c-.139-.034-.692-.1-.889-.13a5.976,5.976,0,0,0-1.64.055c-.912.136-3.034,2.666-3.034,2.666Z" transform="translate(-2181.293 -1147.415)" fill="#f7a491"/>
              <path id="Path_8711" data-name="Path 8711" d="M2243.331,1201.5a7.959,7.959,0,0,0-3.948-2.957c.239-.683.5-1.575.944-1.85.544-.335.918-.266,1.127-.1,1.659,1.276,6,4.767,7.252,5.756a.256.256,0,0,1-.109.455C2248,1202.91,2243.529,1201.528,2243.331,1201.5Z" transform="translate(-2206.938 -1146.324)" fill="#3c8f7c"/>
              <path id="Path_8712" data-name="Path 8712" d="M2037.279,776.8a7.586,7.586,0,0,0-8.663-4.351,7.972,7.972,0,0,0-5.169-3.145c-3.95-.56-9.045,1.356-8.525,5.478-1.248,2.883-.942,6.856,1.55,8.8-.458,3.791,3.342,7.152,7.84,6.7a8.151,8.151,0,0,0,7.9,3.392,17.9,17.9,0,0,1,1.963-.363c-.23-.026,5.13,3.485,8.827-2.766C2046.773,784.171,2043.058,777.04,2037.279,776.8Z" transform="translate(-2008.182 -769.209)" fill="#184655"/>
              <path id="Path_8713" data-name="Path 8713" d="M2014.207,1066.829s8.348-3.711,8.479-3.288c1.046,3.371,4.3,2.283,6.235,8.22.81,2.486,1.641,19.024,1.641,19.024s3.291-2.732,7.995-7.5c.362-.366,3.9,3,3.9,3-9.337,12.615-13.364,13.273-14.923,12.567-3.252-1.474-10.113-22.1-10.1-22.1C2016.605,1075.143,2014.207,1066.829,2014.207,1066.829Z" transform="translate(-2008.182 -1028.977)" fill="#466eb6"/>
              <path id="Path_8714" data-name="Path 8714" d="M2132.151,864.648s12.065-.015,14.648-.164c2.337-.135,11.611.1,11.973.059s2.76-4.1,3.158-3.666-1.334,2.013-.8,2.422,6.291-.507,6.215-.082c-.143.8-3.5.695-3.5,1.079s3.514-.216,3.752.422-3.377.26-3.522.545,3.353.806,3,1.4c-.194.322-3.1-.538-3.085-.1s2.133,1.439,1.874,1.789-1.663-1.074-2.893-1.092-2.108-.659-4.072-.121c-.97.266-8.367,1.17-14.619,1.7-6.407.548-11.66.721-11.66.721Z" transform="translate(-2112.287 -850.093)" fill="#f7a491"/>
              <path id="Path_8715" data-name="Path 8715" d="M1964.834,851.386a15.35,15.35,0,0,1,.308-4.072c-.586-2.012-1.832-6.3-2.28-7.148,0,0,2.1-4.037,4.25-4.009,0,0,2.2,4.95,3.894,5.836a4.217,4.217,0,0,0,.854.255c1.64-.011,7.368-.185,8.438-.2l-.6,8.128c-4.151,8.137-3.027,12.407-1.447,13.987.742.742-10.359,3.758-10.871,2.706C1966.776,865.621,1965.157,855.3,1964.834,851.386Z" transform="translate(-1962.862 -828.301)" fill="#f7cc7f"/>
              <path id="Path_8716" data-name="Path 8716" d="M2086.662,886.571c1.057-.5,8.7-.252,8.7-.252s1.068,5.325.205,6.6c0,0-6.838,1.017-6.643,1.578Z" transform="translate(-2072.137 -872.522)" fill="#f7cc7f"/>
              <path id="Path_8717" data-name="Path 8717" d="M2031.68,848.1a39.828,39.828,0,0,0,0,4.114c.136,1.21-1.241,4.046-3.8,4.1s-.376-2.721-.151-3.912.494-5.85.494-5.85Z" transform="translate(-2019.159 -837.47)" fill="#f7a491"/>
              <path id="Path_8718" data-name="Path 8718" d="M2038.937,846.544s-.062,1.082-.152,2.336a2.981,2.981,0,0,0,3.561.87c.017-.9.051-1.653.051-1.653Z" transform="translate(-2029.877 -837.47)" fill="#f47458"/>
              <path id="Path_8719" data-name="Path 8719" d="M2034.929,785.27a4.259,4.259,0,0,1,2.266,1.886c.815,1.452,1.158,5.586-1.972,7.289s-5.277-1.159-5.133-3.8S2031.038,784.536,2034.929,785.27Z" transform="translate(-2022.195 -783.298)" fill="#f7a491"/>
              <path id="Path_8720" data-name="Path 8720" d="M2024.021,813.694c.212.654.691,1.083,1.073.959s.517-.753.305-1.406-.692-1.083-1.073-.959S2023.809,813.041,2024.021,813.694Z" transform="translate(-2016.757 -807.215)" fill="#f7a491"/>
              <path id="Path_8721" data-name="Path 8721" d="M2067.667,785.027s1.59,4.346,3.215,4.836,1.456,2.611,1.456,2.611.3-4.9-1.17-6.133A6.525,6.525,0,0,0,2067.667,785.027Z" transform="translate(-2055.369 -783.171)" fill="#184655"/>
              <path id="Path_8722" data-name="Path 8722" d="M2087.984,826.323c-.265.669-.113,1.358.34,1.536s1.034-.219,1.3-.889.112-1.357-.342-1.536S2088.249,825.653,2087.984,826.323Z" transform="translate(-2073.189 -818.799)" fill="#f7a491"/>
            </g>
            <path id="Path_8723" data-name="Path 8723" d="M1921.621,635.087s3.535.154,3.95.154,1.623-1.249,1.623-1.249Z" transform="translate(-1921.621 -633.228)" fill="#f47458"/>
          </g>
          <g id="Group_4976" data-name="Group 4976" transform="translate(0)">
            <circle id="Ellipse_391" data-name="Ellipse 391" cx="13.723" cy="13.723" r="13.723" transform="matrix(0.976, -0.22, 0.22, 0.976, 0, 6.036)" fill="#fae0b2"/>
            <path id="Path_8724" data-name="Path 8724" d="M1847.283,434.421a11.515,11.515,0,1,1-16.041-2.81A11.515,11.515,0,0,1,1847.283,434.421Z" transform="translate(-1821.453 -424.632)" fill="#f7cc7f"/>
            <g id="Group_4975" data-name="Group 4975" transform="translate(11.537 8.021)">
              <path id="Path_8725" data-name="Path 8725" d="M1889.2,472.7l-.5-1.856a9.336,9.336,0,0,1-2.452.216,1.17,1.17,0,0,1-1.109-1.153v-.074a1.168,1.168,0,0,1,1.24-1.183,6.813,6.813,0,0,0,2.217-.208c1.114-.3,1.759-.937,1.548-1.718-.2-.742-.953-1.042-2.53-1.139-2.28-.138-3.971-.729-4.483-2.624-.465-1.719.382-3.394,2.36-4.37l-.5-1.856,1.914-.518.465,1.719a8.647,8.647,0,0,1,1.853-.225,1.168,1.168,0,0,1,1.167,1.155h0a1.168,1.168,0,0,1-1.193,1.185,6.234,6.234,0,0,0-1.782.221c-1.27.344-1.532,1-1.383,1.548.174.645.969.87,2.8,1.046,2.546.192,3.774,1.013,4.25,2.771.469,1.739-.359,3.556-2.5,4.554l.54,1.993Z" transform="translate(-1883.008 -456.217)" fill="#fff"/>
            </g>
          </g>
        </g>
        <path id="Path_8726" data-name="Path 8726" d="M1955.287,627.07l1.459-1.312s-.688-.823-.4-.981c.465-.257,1.263.737,1.191.979a5.728,5.728,0,0,1-.927,1.021Z" transform="translate(-1935.269 -596.942)" fill="#f7a491"/>
      </g>
    </g>
  </g>
</svg>
