<svg id="healthcare" xmlns="http://www.w3.org/2000/svg" width="132.748" height="132.748" viewBox="0 0 132.748 132.748">
  <path id="Path_8381" data-name="Path 8381" d="M132.748,66.374A66.374,66.374,0,1,1,66.374,0,66.373,66.373,0,0,1,132.748,66.374Zm0,0" fill="#b2ed69"/>
  <path id="Path_8382" data-name="Path 8382" d="M221.686,207.613l-38.265-38.265L170.1,194.883,144.56,169.348l-21.931,42.72,45.26,45.26a66.442,66.442,0,0,0,53.8-49.716Zm0,0" transform="translate(-90.835 -125.441)" fill="#94e027"/>
  <path id="Path_8383" data-name="Path 8383" d="M68.64,164.241a20.7,20.7,0,0,1,40.125-7.138,20.7,20.7,0,0,1,40.126,7.138c0,30.03-40.126,45.878-40.126,45.878S68.64,193.62,68.64,164.241Zm0,0" transform="translate(-50.844 -106.329)" fill="#fc5557"/>
  <path id="Path_8384" data-name="Path 8384" d="M242.829,143.547A20.7,20.7,0,0,0,223.4,157.1V210.12s40.126-15.848,40.126-45.879a20.694,20.694,0,0,0-20.7-20.694Zm0,0" transform="translate(-165.477 -106.329)" fill="#e21e28"/>
  <path id="Path_8385" data-name="Path 8385" d="M281.93,262.187a24.465,24.465,0,1,1-24.465-24.465A24.465,24.465,0,0,1,281.93,262.187Zm0,0" transform="translate(-172.589 -176.087)" fill="#fff"/>
  <path id="Path_8386" data-name="Path 8386" d="M327.339,237.723h-.007v48.93h.007a24.465,24.465,0,1,0,0-48.93Zm0,0" transform="translate(-242.463 -176.088)" fill="#e9edf5"/>
  <path id="Path_8387" data-name="Path 8387" d="M299.636,284.374h-9.874V274.5H279.651v9.874h-9.874v10.112h9.874v9.874h10.112v-9.874h9.874Zm0,0" transform="translate(-199.831 -203.33)" fill="#fb2"/>
  <path id="Path_8388" data-name="Path 8388" d="M332.395,284.374V274.5h-5.063v29.859h5.063v-9.874h9.874V284.374Zm0,0" transform="translate(-242.463 -203.33)" fill="#ffa300"/>
</svg>
