<svg id="location_2_" data-name="location (2)" xmlns="http://www.w3.org/2000/svg" width="53.187" height="79.781" viewBox="0 0 53.187 79.781">
  <path id="Subtraction_6" data-name="Subtraction 6" d="M26.594,79.781h0A161.426,161.426,0,0,1,13.3,61.9,109.765,109.765,0,0,1,4.155,44.7C1.4,37.982,0,31.89,0,26.594a26.594,26.594,0,0,1,45.4-18.8,26.42,26.42,0,0,1,7.788,18.8c0,5.183-1.4,11.2-4.155,17.9a112.482,112.482,0,0,1-9.142,17.218,168.668,168.668,0,0,1-13.3,18.071Zm0-71.214A17.513,17.513,0,1,0,44.107,26.08,17.533,17.533,0,0,0,26.594,8.567Z" transform="translate(0)" fill="#9597ac"/>
</svg>
