<svg xmlns="http://www.w3.org/2000/svg" width="203.233" height="180.891" viewBox="0 0 203.233 180.891">
  <g id="location_4_" data-name="location (4)" transform="translate(-22.996 4)">
    <g id="Group_4994" data-name="Group 4994" transform="translate(22.996 17.857)">
      <g id="Group_4990" data-name="Group 4990" transform="translate(0 0)">
        <g id="Group_4987" data-name="Group 4987" transform="translate(0 124.397)">
          <path id="Path_8737" data-name="Path 8737" d="M174.546,441.331H24.7a1.7,1.7,0,0,1-1.115-2.98L59.019,407.53a3.4,3.4,0,0,1,2.229-.834H138a3.4,3.4,0,0,1,2.229.834l35.436,30.822a1.7,1.7,0,0,1-1.115,2.98Z" transform="translate(-22.996 -406.694)" fill="#bcea73"/>
          <ellipse id="Ellipse_394" data-name="Ellipse 394" cx="27.589" cy="4.635" rx="27.589" ry="4.635" transform="translate(49.037 10.159)" fill="#a3e440"/>
          <path id="Path_8738" data-name="Path 8738" d="M217.366,406.695h12.7v34.636h-12.7Z" transform="translate(-153.436 -406.693)" fill="#f8f3f1"/>
          <path id="Path_8739" data-name="Path 8739" d="M230.062,437.58v9.267c-4.578,0-8.894-.187-12.7-.518V438.1C221.167,437.766,225.485,437.58,230.062,437.58Z" transform="translate(-153.436 -427.42)" fill="#efe2dd"/>
          <path id="Path_8740" data-name="Path 8740" d="M136.175,406.695v34.636h-22.9v-28.3l6.33-5.506a3.388,3.388,0,0,1,2.23-.833h14.339Z" transform="translate(-83.582 -406.693)" fill="#b9acac"/>
          <path id="Path_8741" data-name="Path 8741" d="M175.644,444.75V449.3c-2.264-.674-3.555-1.45-3.555-2.277S173.38,445.421,175.644,444.75Z" transform="translate(-123.051 -432.232)" fill="#9e9797"/>
          <path id="Path_8742" data-name="Path 8742" d="M377.538,441.326H362.023a1.7,1.7,0,0,0,1.114-2.979L327.7,407.526a3.4,3.4,0,0,0-2.228-.836h15.511a3.4,3.4,0,0,1,2.228.836l35.438,30.821A1.7,1.7,0,0,1,377.538,441.326Z" transform="translate(-225.987 -406.69)" fill="#a3e440"/>
          <path id="Path_8743" data-name="Path 8743" d="M322.739,415.929c-2.422,2.422-23.462,23.481-31.551,31.6h23.436q10.36-10.314,20.668-20.68Z" transform="translate(-202.977 -412.89)" fill="#f8f3f1"/>
          <path id="Path_8744" data-name="Path 8744" d="M384.944,426.849,372.39,415.931l-7.215,7.216,12.566,10.93Q381.344,430.465,384.944,426.849Z" transform="translate(-252.629 -412.892)" fill="#efe2dd"/>
        </g>
        <g id="Group_4988" data-name="Group 4988" transform="translate(29.678 7.112)">
          <path id="Path_8745" data-name="Path 8745" d="M207.124,97.051a46.947,46.947,0,1,0-78.5,34.764,99.142,99.142,0,0,1,29.2,48.549,2.426,2.426,0,0,0,4.7,0h0a100.852,100.852,0,0,1,29.45-48.776A46.815,46.815,0,0,0,207.124,97.051Z" transform="translate(-113.229 -50.103)" fill="#31a7fb"/>
          <path id="Path_8747" data-name="Path 8747" d="M288.868,97.051a46.81,46.81,0,0,1-15.147,34.538,100.86,100.86,0,0,0-29.452,48.775v0a2.425,2.425,0,0,1-4.695,0,100.713,100.713,0,0,0-4.535-13.479,101.7,101.7,0,0,1,24.894-35.3,46.949,46.949,0,0,0-24.89-80.975,46.942,46.942,0,0,1,53.826,46.437Z" transform="translate(-194.975 -50.105)" fill="#1c96f9"/>
          <circle id="Ellipse_395" data-name="Ellipse 395" cx="21.531" cy="21.531" r="21.531" transform="translate(25.416 25.416)" fill="#eaf9fa"/>
          <path id="Path_8748" data-name="Path 8748" d="M264.768,148.905A21.538,21.538,0,0,1,237,169.518a21.538,21.538,0,0,0,0-41.226,21.547,21.547,0,0,1,27.767,20.613Z" transform="translate(-196.291 -101.96)" fill="#d4f2f6"/>
        </g>
        <path id="Path_8749" data-name="Path 8749" d="M404.973,99.943a2.539,2.539,0,0,0-3.358-1.281c-1.823.813-3.873,1.609-6.092,2.362a2.27,2.27,0,0,0-.346.146,47.174,47.174,0,0,1,.823,4.778,2.258,2.258,0,0,0,.335.024,2.637,2.637,0,0,0,.817-.132c2.369-.8,4.571-1.657,6.539-2.538A2.543,2.543,0,0,0,404.973,99.943ZM417.008,88.47a2.542,2.542,0,0,0-3.466.945,16.5,16.5,0,0,1-3.822,4.408,2.542,2.542,0,0,0,3.256,3.9,21.6,21.6,0,0,0,4.977-5.787A2.541,2.541,0,0,0,417.008,88.47Zm3.1-7.854a26.378,26.378,0,0,0-1.772-7.258,2.541,2.541,0,1,0-4.717,1.891,21.371,21.371,0,0,1,1.43,5.862,2.542,2.542,0,0,0,2.528,2.294c.081,0,.166,0,.247-.01A2.546,2.546,0,0,0,420.105,80.616Z" transform="translate(-272.763 -54.404)" fill="#bcea73"/>
        <path id="Path_8750" data-name="Path 8750" d="M109.269,262.949c-2.294.095-4.55.153-6.7.176a2.541,2.541,0,0,0,.024,5.083h.027c2.2-.024,4.513-.085,6.861-.183a2.54,2.54,0,1,0-.213-5.076Zm-16.711-.007c-2.308-.119-4.534-.291-6.614-.515a2.541,2.541,0,1,0-.542,5.052c2.175.234,4.5.417,6.9.539.044,0,.088,0,.132,0a2.541,2.541,0,0,0,.125-5.079Zm36.255,1.064a2.541,2.541,0,0,0-2.782-2.277c-2.277.227-4.53.43-6.7.6a2.542,2.542,0,0,0,.2,5.076q.1,0,.2-.01c2.2-.173,4.493-.38,6.807-.61A2.541,2.541,0,0,0,128.813,264.006Zm-52.57-3.2a45.351,45.351,0,0,1-6.119-1.9,2.542,2.542,0,0,0-1.881,4.723,50.391,50.391,0,0,0,6.814,2.121,2.586,2.586,0,0,0,.6.071,2.541,2.541,0,0,0,.59-5.011Zm69.39,1.027a2.542,2.542,0,0,0-2.877-2.155c-2.246.322-4.493.624-6.682.9a2.541,2.541,0,0,0,.318,5.062,2.619,2.619,0,0,0,.322-.02c2.216-.281,4.49-.586,6.763-.911A2.541,2.541,0,0,0,145.633,261.837Zm16.728-2.788A2.54,2.54,0,0,0,159.413,257c-2.216.4-4.456.779-6.651,1.145a2.541,2.541,0,0,0,.41,5.049,2.952,2.952,0,0,0,.417-.034c2.219-.369,4.483-.756,6.719-1.159A2.538,2.538,0,0,0,162.361,259.049Zm16.634-3.419a2.536,2.536,0,0,0-3.039-1.911c-.027,0-2.477.559-6.594,1.389a2.541,2.541,0,0,0,.5,5.032,2.577,2.577,0,0,0,.5-.051c4.185-.84,6.614-1.393,6.716-1.416A2.543,2.543,0,0,0,178.995,255.63ZM62.459,254.139a11.849,11.849,0,0,1-2.9-4.717,2.542,2.542,0,0,0-4.839,1.559,17.044,17.044,0,0,0,4.1,6.709,2.541,2.541,0,0,0,3.636-3.551Zm-.356-21.76a2.542,2.542,0,0,0-3.581.322,19.97,19.97,0,0,0-3.748,6.736,2.542,2.542,0,0,0,4.845,1.538,14.85,14.85,0,0,1,2.806-5.018A2.538,2.538,0,0,0,62.1,232.379Zm12.8-9.85a2.491,2.491,0,0,0-1.447.153,57.726,57.726,0,0,0-6.374,3.114,2.541,2.541,0,1,0,2.535,4.4,51.566,51.566,0,0,1,5.8-2.829,2.451,2.451,0,0,0,.657-.4Q75.389,224.792,74.908,222.529Z" transform="translate(-44.203 -158.674)" fill="#bcea73"/>
        <g id="Group_4989" data-name="Group 4989" transform="translate(122.085)">
          <path id="Path_8751" data-name="Path 8751" d="M401.276,17.992l-2.983,8.133a2.35,2.35,0,0,1-4.393.052L384.853,3.219A2.35,2.35,0,0,1,387.9.171l22.958,9.047a2.35,2.35,0,0,1-.052,4.393l-8.133,2.983A2.351,2.351,0,0,0,401.276,17.992Z" transform="translate(-384.683 -0.001)" fill="#70d9e6"/>
          <path id="Path_8752" data-name="Path 8752" d="M410.8,13.611l-3.166,1.162-21.583-8.5-1.2-3.051A2.35,2.35,0,0,1,387.9.169l22.957,9.047a2.35,2.35,0,0,1-.053,4.394Z" transform="translate(-384.683 0)" fill="#22c7db"/>
        </g>
      </g>
      <g id="Group_4992" data-name="Group 4992" transform="translate(136.582 67.244)">
        <circle id="Ellipse_397" data-name="Ellipse 397" cx="8.346" cy="8.346" r="8.346" transform="translate(0 0)" fill="#bcea73"/>
        <path id="Path_8754" data-name="Path 8754" d="M463.338,241.269a8.342,8.342,0,0,1-12.579,7.193,7.384,7.384,0,0,0,0-14.386,8.344,8.344,0,0,1,12.575,7.194Z" transform="translate(-446.646 -232.924)" fill="#99d53b"/>
      </g>
      <g id="Group_4996" data-name="Group 4996" transform="translate(186.541 114.08)">
        <circle id="Ellipse_397-2" data-name="Ellipse 397" cx="8.346" cy="8.346" r="8.346" transform="translate(0 0)" fill="#bcea73"/>
        <path id="Path_8754-2" data-name="Path 8754" d="M463.338,241.269a8.342,8.342,0,0,1-12.579,7.193,7.384,7.384,0,0,0,0-14.386,8.344,8.344,0,0,1,12.575,7.194Z" transform="translate(-446.646 -232.924)" fill="#99d53b"/>
      </g>
      <g id="Group_4993" data-name="Group 4993" transform="translate(135.003 111.058)">
        <path id="Path_8755" data-name="Path 8755" d="M442.738,371.828l1.354-1.354a2.541,2.541,0,0,0-3.594-3.594l-1.354,1.354-1.354-1.354a2.541,2.541,0,0,0-3.594,3.594l1.354,1.354-1.354,1.354a2.541,2.541,0,1,0,3.594,3.594l1.354-1.354,1.354,1.354a2.541,2.541,0,1,0,3.594-3.594Z" transform="translate(-433.451 -366.136)" fill="#64b9fc"/>
      </g>
    </g>
    <g id="Group_4995" data-name="Group 4995" transform="translate(31.11 -4)">
      <circle id="Ellipse_398" data-name="Ellipse 398" cx="6.956" cy="6.956" r="6.956" transform="translate(0 0)" fill="#a8e7ef"/>
      <path id="Path_8757" data-name="Path 8757" d="M97.048,6.955a6.953,6.953,0,0,1-10.483,6,6.154,6.154,0,0,0,0-11.99,6.954,6.954,0,0,1,10.48,6Z" transform="translate(-83.137 0)" fill="#70d9e6"/>
    </g>
  </g>
</svg>
