<svg xmlns="http://www.w3.org/2000/svg" width="148.881" height="148.879" viewBox="0 0 148.881 148.879">
  <g id="logout_5_" data-name="logout (5)" transform="translate(0 -0.004)">
    <path id="Path_8735" data-name="Path 8735" d="M93.05,80.647a6.2,6.2,0,0,0-6.2,6.2v24.814a6.21,6.21,0,0,1-6.2,6.2H62.033V24.817a12.5,12.5,0,0,0-8.449-11.792l-1.837-.615h28.9a6.21,6.21,0,0,1,6.2,6.2v18.61a6.2,6.2,0,0,0,12.406,0V18.614A18.633,18.633,0,0,0,80.643,0H13.957a4.872,4.872,0,0,0-.663.136C13,.115,12.71,0,12.407,0A12.419,12.419,0,0,0,0,12.41v111.66a12.5,12.5,0,0,0,8.449,11.793l37.332,12.444a12.843,12.843,0,0,0,3.846.577,12.419,12.419,0,0,0,12.406-12.407v-6.2h18.61a18.633,18.633,0,0,0,18.61-18.61V86.849a6.2,6.2,0,0,0-6.2-6.2Zm0,0" fill="#fff"/>
    <path id="Path_8736" data-name="Path 8736" d="M343.751,133.3l-24.814-24.813a6.2,6.2,0,0,0-10.589,4.386v18.61H283.537a6.2,6.2,0,1,0,0,12.406h24.812V162.5a6.2,6.2,0,0,0,10.589,4.386l24.814-24.814A6.2,6.2,0,0,0,343.751,133.3Zm0,0" transform="translate(-196.69 -75.647)" fill="#fff"/>
  </g>
</svg>
