<svg xmlns="http://www.w3.org/2000/svg" width="134.18" height="134" viewBox="0 0 134.18 134">
  <g id="makeup-brushes" transform="translate(-0.098 -0.097)">
    <circle id="Ellipse_354" data-name="Ellipse 354" cx="67" cy="67" r="67" transform="translate(0.098 0.097)" fill="#ff5f96"/>
    <path id="Path_8356" data-name="Path 8356" d="M242.836,190.7a67.191,67.191,0,0,0,59.354-66.73q0-1.115-.036-2.221L257.4,77l-14.844,32.734-15.016,65.675Z" transform="translate(-167.913 -56.876)" fill="#d72878"/>
    <path id="Path_8357" data-name="Path 8357" d="M225.759,258.085A10.759,10.759,0,0,1,215,247.326V185h21.519v62.326A10.759,10.759,0,0,1,225.759,258.085Z" transform="translate(-158.662 -136.535)" fill="#fff"/>
    <path id="Path_8358" data-name="Path 8358" d="M255.6,185v73.083l.106,0a10.759,10.759,0,0,0,10.759-10.759V185Z" transform="translate(-188.604 -136.535)" fill="#e9edf5"/>
    <path id="Path_8359" data-name="Path 8359" d="M215,197h21.519v17.32H215Z" transform="translate(-158.662 -145.386)" fill="#555a66"/>
    <path id="Path_8360" data-name="Path 8360" d="M255.6,197h10.866v17.32H255.6Z" transform="translate(-188.604 -145.386)" fill="#333940"/>
    <path id="Path_8361" data-name="Path 8361" d="M199.223,101.883H177.7l-12.42-26.741a9.012,9.012,0,0,1,8.174-12.809h30.012a9.012,9.012,0,0,1,8.174,12.809Z" transform="translate(-121.366 -46.059)" fill="#ffce00"/>
    <path id="Path_8362" data-name="Path 8362" d="M270.707,62.333H255.6v39.549h10.866l12.42-26.741A9.012,9.012,0,0,0,270.707,62.333Z" transform="translate(-188.604 -46.058)" fill="#fdba12"/>
  </g>
</svg>
