<svg xmlns="http://www.w3.org/2000/svg" width="129" height="129.372" viewBox="0 0 129 129.372">
  <g id="mannequin" transform="translate(-0.5 0.5)">
    <g id="Group_4896" data-name="Group 4896" transform="translate(0 0)">
      <g id="Group_4895" data-name="Group 4895">
        <g id="Group_4894" data-name="Group 4894">
          <g id="Group_4893" data-name="Group 4893">
            <g id="Group_4892" data-name="Group 4892">
              <g id="Group_4891" data-name="Group 4891">
                <g id="Group_4890" data-name="Group 4890">
                  <g id="Group_4889" data-name="Group 4889">
                    <circle id="Ellipse_352" data-name="Ellipse 352" cx="64.5" cy="64.5" r="64.5" transform="translate(0.5 -0.5)" fill="#7584f2"/>
                  </g>
                </g>
              </g>
            </g>
          </g>
        </g>
      </g>
    </g>
    <path id="Path_8330" data-name="Path 8330" d="M188.908,157.088l15.867,15.249c32.6-1.926,58.878-26.321,62.271-57.271L220.791,70.614l-.9.353L207.246,58.811l-26.188,63.061,17.991,17.289v15.732Z" transform="translate(-138.418 -43.464)" fill="#4855b7"/>
    <path id="Path_8331" data-name="Path 8331" d="M226.762,279.38v-49.9h-7.829v49.9h-7.792v7.829h23.412V279.38Z" transform="translate(-158.348 -174.203)" fill="#fff"/>
    <path id="Path_8332" data-name="Path 8332" d="M260,279.38v-49.9h-3.883v57.729H267.8V279.38Z" transform="translate(-191.811 -174.203)" fill="#e9edf5"/>
    <g id="Group_4897" data-name="Group 4897" transform="translate(44.323 15.347)">
      <path id="Path_8333" data-name="Path 8333" d="M219.033,71.093l-9.95-2.952a5.024,5.024,0,0,1-3.595-4.816V58.811H192.223v4.514a5.024,5.024,0,0,1-3.595,4.816l-9.95,2.952V82.147l5.26,17.1a15.512,15.512,0,0,1-1.05,11.691,38.439,38.439,0,0,0-2.228,5.217,25.553,25.553,0,0,0-1.361,8.277h39.216V124.1a25.033,25.033,0,0,0-.911-6.8,38.411,38.411,0,0,0-2.488-6.5l-.069-.141a15.512,15.512,0,0,1-.991-11.1l4.976-17.421V71.093Z" transform="translate(-178.678 -58.811)" fill="#ffce00"/>
    </g>
    <g id="Group_4898" data-name="Group 4898" transform="translate(64.121 15.347)">
      <path id="Path_8334" data-name="Path 8334" d="M276.267,82.146V71.093l-9.95-2.952a5.024,5.024,0,0,1-3.595-4.816V58.811h-6.6v65.62h19.628V124.1a25.035,25.035,0,0,0-.911-6.8,38.433,38.433,0,0,0-2.488-6.5l-.069-.141a15.513,15.513,0,0,1-.991-11.1Z" transform="translate(-256.121 -58.811)" fill="#fdba12"/>
    </g>
  </g>
</svg>
