<svg xmlns="http://www.w3.org/2000/svg" width="70.193" height="77.263" viewBox="0 0 70.193 77.263">
  <g id="shopping-bag" transform="translate(-14.696)">
    <g id="Group_4885" data-name="Group 4885" transform="translate(14.696)">
      <path id="Path_8327" data-name="Path 8327" d="M84.864,75.338,79.09,21.553a1.762,1.762,0,0,0-1.732-1.539H66.678V16.742a16.742,16.742,0,1,0-33.484,0v3.271H22.226a1.762,1.762,0,0,0-1.732,1.539L14.721,75.338a1.724,1.724,0,0,0,.385,1.347,1.551,1.551,0,0,0,1.251.577H83.228a1.552,1.552,0,0,0,1.251-.577A1.724,1.724,0,0,0,84.864,75.338ZM64.947,29.731a1.539,1.539,0,1,1-1.539,1.539A1.52,1.52,0,0,1,64.947,29.731ZM36.659,16.742a13.278,13.278,0,0,1,26.556,0v3.271H36.659ZM34.927,29.731a1.539,1.539,0,1,1-1.539,1.539A1.52,1.52,0,0,1,34.927,29.731ZM18.377,73.7l5.388-50.322h9.429v3.175a4.907,4.907,0,1,0,3.271,0V23.381H63.022v3.175a4.907,4.907,0,1,0,3.271,0V23.381h9.814L81.5,73.7Z" transform="translate(-14.696)" fill="#fff"/>
    </g>
  </g>
</svg>
