<svg id="user_43_" data-name="user (43)" xmlns="http://www.w3.org/2000/svg" width="65.617" height="78.649" viewBox="0 0 65.617 78.649">
  <path id="Path_8646" data-name="Path 8646" d="M105.975,37.886a18.329,18.329,0,0,0,13.394-5.55,18.329,18.329,0,0,0,5.549-13.393,18.331,18.331,0,0,0-5.55-13.393,18.939,18.939,0,0,0-26.787,0,18.33,18.33,0,0,0-5.55,13.393,18.328,18.328,0,0,0,5.55,13.394A18.333,18.333,0,0,0,105.975,37.886Zm0,0" transform="translate(-73.663 0)" fill="#9597ac"/>
  <path id="Path_8647" data-name="Path 8647" d="M65.458,269.8a46.791,46.791,0,0,0-.637-4.97,39.155,39.155,0,0,0-1.222-5,24.674,24.674,0,0,0-2.054-4.66,17.583,17.583,0,0,0-3.1-4.036,13.656,13.656,0,0,0-4.449-2.8,15.378,15.378,0,0,0-5.68-1.028c-.8,0-1.579.329-3.079,1.306-.923.6-2,1.3-3.207,2.068a18.378,18.378,0,0,1-4.15,1.828,16.115,16.115,0,0,1-10.151,0,18.339,18.339,0,0,1-4.147-1.828c-1.193-.763-2.274-1.459-3.21-2.069-1.5-.976-2.275-1.306-3.078-1.306a15.358,15.358,0,0,0-5.679,1.029,13.643,13.643,0,0,0-4.45,2.8,17.585,17.585,0,0,0-3.1,4.036,24.725,24.725,0,0,0-2.054,4.66,39.246,39.246,0,0,0-1.222,5A46.626,46.626,0,0,0,.157,269.8c-.1,1.5-.157,3.067-.157,4.644a13.059,13.059,0,0,0,3.879,9.88,13.962,13.962,0,0,0,9.995,3.646h37.87a13.959,13.959,0,0,0,9.994-3.646,13.054,13.054,0,0,0,3.879-9.881c0-1.585-.054-3.148-.159-4.645Zm0,0" transform="translate(0 -209.326)" fill="#9597ac"/>
</svg>
