<svg xmlns="http://www.w3.org/2000/svg" width="49.676" height="40.707" viewBox="0 0 49.676 40.707">
  <g id="wallet_4_" data-name="wallet (4)" transform="translate(0 -39)">
    <g id="Group_5017" data-name="Group 5017" transform="translate(0 39)">
      <g id="Group_5016" data-name="Group 5016" transform="translate(0 0)">
        <path id="Path_8759" data-name="Path 8759" d="M44.915,39H10.154A4.77,4.77,0,0,0,5.4,43.772v.058H4.761A4.758,4.758,0,0,0,0,48.567V74.934a4.787,4.787,0,0,0,4.761,4.772H39.522a4.77,4.77,0,0,0,4.749-4.772v-.058h.644a4.758,4.758,0,0,0,4.761-4.738V43.772A4.78,4.78,0,0,0,44.915,39ZM39.522,77.407H4.761A2.488,2.488,0,0,1,2.3,74.934V48.567a2.459,2.459,0,0,1,2.461-2.438H39.522a2.441,2.441,0,0,1,2.449,2.438v6.577a2.831,2.831,0,0,1-.609.069H34.727a6.549,6.549,0,0,0,0,13.1h6.623c.207-.012.414-.035.609-.057l.012,6.681A2.471,2.471,0,0,1,39.522,77.407Zm7.854-7.267a2.459,2.459,0,0,1-2.461,2.438h-.644V67.426a6.284,6.284,0,0,0,1.322-1.207l1.782-2.3Zm-3.6-5.313a3.1,3.1,0,0,1-2.415,1.2H34.727a4.255,4.255,0,0,1,0-8.509h6.623A5.246,5.246,0,0,0,43.639,57a5.348,5.348,0,0,0,1.943-1.564l1.782-2.3.012,7.026Zm3.6-15.455-3.1,4V48.567a4.741,4.741,0,0,0-4.749-4.738H7.7v-.058A2.471,2.471,0,0,1,10.154,41.3H44.915a2.488,2.488,0,0,1,2.461,2.472v5.6Z" transform="translate(0 -39)"/>
      </g>
    </g>
    <g id="Group_5019" data-name="Group 5019" transform="translate(33.393 60.618)">
      <g id="Group_5018" data-name="Group 5018">
        <path id="Path_8760" data-name="Path 8760" d="M294.31,227h-2.76a1.15,1.15,0,0,0,0,2.3h2.76a1.15,1.15,0,0,0,0-2.3Z" transform="translate(-290.4 -227)"/>
      </g>
    </g>
  </g>
</svg>
