<svg xmlns="http://www.w3.org/2000/svg" width="148.489" height="152.989" viewBox="0 0 148.489 152.989">
  <g id="XMLID_3635_" transform="translate(-7.5)">
    <path id="XMLID_3651_" d="M97.493,30h-4.5V48h-9V30H75V48H66V30H57V48H48V30H39V48H30V30H25.5a18.019,18.019,0,0,0-18,18v9H115.492V48A18.019,18.019,0,0,0,97.493,30Z" transform="translate(0 -21.001)" fill="#9597ac"/>
    <path id="XMLID_3644_" d="M7.5,239.993a18.019,18.019,0,0,0,18,18H97.493a18.019,18.019,0,0,0,18-18V150H7.5ZM25.5,159H97.493v9H25.5Zm0,18H97.493v9H25.5Zm0,18H97.493v9H25.5Zm0,18h54v9h-54Zm0,18h36v9h-36Z" transform="translate(0 -105.003)" fill="#9597ac"/>
    <path id="XMLID_3643_" d="M82.5,0h9V9h-9Z" transform="translate(-52.502)" fill="#9597ac"/>
    <path id="XMLID_3642_" d="M142.5,0h9V9h-9Z" transform="translate(-94.503)" fill="#9597ac"/>
    <path id="XMLID_3641_" d="M202.5,0h9V9h-9Z" transform="translate(-136.504)" fill="#9597ac"/>
    <path id="XMLID_3640_" d="M262.5,0h9V9h-9Z" transform="translate(-178.506)" fill="#9597ac"/>
    <path id="XMLID_3639_" d="M412.5,195h27v54h-27Z" transform="translate(-283.509 -136.504)" fill="#9597ac"/>
    <path id="XMLID_3638_" d="M426,0a13.5,13.5,0,0,0-13.5,13.5v18h27v-18A13.5,13.5,0,0,0,426,0Z" transform="translate(-283.509)" fill="#9597ac"/>
    <path id="XMLID_3637_" d="M412.5,135h27v9h-27Z" transform="translate(-283.509 -94.503)" fill="#9597ac"/>
    <path id="XMLID_3636_" d="M426,434.7,439.5,405h-27Z" transform="translate(-283.509 -283.509)" fill="#9597ac"/>
  </g>
</svg>
